<?xml version="1.0" encoding="UTF-8"?>
<svg xmlns="http://www.w3.org/2000/svg" xmlns:xlink="http://www.w3.org/1999/xlink" width="30px" height="30px" viewBox="0 0 30 30" version="1.1">
<g id="surface1">
<path style=" stroke:none;fill-rule:nonzero;fill:rgb(24.705882%,31.764706%,70.980392%);fill-opacity:1;" d="M 14.460938 6.289062 C 14 6.390625 13.65625 6.589844 13.308594 6.957031 C 13.003906 7.285156 12.835938 7.605469 12.746094 8.027344 C 12.667969 8.410156 12.699219 8.871094 12.828125 9.25 C 13.003906 9.765625 13.332031 10.144531 13.96875 10.566406 C 14.304688 10.789062 14.308594 10.792969 14.339844 10.910156 C 14.363281 10.988281 14.371094 11.183594 14.375 11.53125 C 14.375 11.972656 14.371094 12.050781 14.328125 12.160156 C 14.25 12.382812 14.246094 12.386719 13.585938 12.386719 L 13.019531 12.386719 L 12.824219 12.214844 C 12.542969 11.96875 12.480469 11.941406 12.222656 11.941406 C 12.03125 11.941406 12 11.949219 11.886719 12.011719 C 11.621094 12.15625 11.492188 12.414062 11.511719 12.761719 C 11.523438 13.007812 11.605469 13.179688 11.792969 13.363281 C 11.9375 13.511719 12.027344 13.546875 12.234375 13.546875 C 12.394531 13.546875 12.523438 13.488281 12.644531 13.359375 C 12.777344 13.222656 12.964844 13.105469 13.132812 13.0625 C 13.449219 12.980469 14.023438 13.035156 14.253906 13.167969 L 14.339844 13.222656 L 14.351562 14.679688 C 14.386719 18.097656 14.386719 19.316406 14.367188 19.4375 C 14.292969 19.828125 13.976562 20.152344 13.519531 20.3125 C 13.285156 20.394531 12.859375 20.414062 12.539062 20.359375 C 11.972656 20.257812 11.394531 19.984375 10.78125 19.519531 C 10.632812 19.410156 10.4375 19.25 10.347656 19.164062 L 10.183594 19.011719 L 10.375 18.835938 C 10.585938 18.640625 10.664062 18.53125 10.664062 18.441406 C 10.664062 18.394531 10.621094 18.355469 10.425781 18.222656 C 9.746094 17.761719 9.085938 17.222656 8.875 16.945312 C 8.808594 16.859375 8.742188 16.792969 8.722656 16.792969 C 8.644531 16.792969 8.519531 17.355469 8.484375 17.855469 C 8.429688 18.636719 8.554688 19.460938 8.796875 19.910156 C 8.863281 20.035156 8.878906 20.050781 8.949219 20.058594 C 9.011719 20.066406 9.050781 20.046875 9.148438 19.960938 C 9.296875 19.835938 9.355469 19.804688 9.441406 19.804688 C 9.496094 19.804688 9.523438 19.832031 9.632812 19.984375 C 10.074219 20.621094 10.683594 21.238281 11.242188 21.609375 C 11.652344 21.890625 12.011719 22.050781 12.890625 22.347656 C 13.875 22.679688 14.019531 22.742188 14.429688 23.027344 C 14.664062 23.191406 14.785156 23.335938 14.910156 23.582031 C 14.949219 23.671875 15 23.742188 15.015625 23.742188 C 15.03125 23.742188 15.078125 23.679688 15.117188 23.605469 C 15.25 23.351562 15.414062 23.179688 15.707031 22.984375 C 16.027344 22.773438 16.0625 22.753906 16.957031 22.414062 C 18.015625 22.011719 18.226562 21.917969 18.636719 21.664062 C 19.238281 21.292969 19.839844 20.726562 20.347656 20.050781 C 20.464844 19.894531 20.582031 19.761719 20.605469 19.753906 C 20.671875 19.726562 20.78125 19.785156 20.914062 19.910156 C 20.984375 19.976562 21.042969 20.011719 21.0625 20.007812 C 21.082031 20 21.117188 19.992188 21.136719 19.992188 C 21.1875 19.992188 21.320312 19.722656 21.398438 19.464844 C 21.53125 19.023438 21.601562 18.179688 21.542969 17.675781 C 21.507812 17.375 21.425781 17.042969 21.335938 16.851562 C 21.242188 16.632812 21.230469 16.632812 21.121094 16.84375 C 20.921875 17.21875 20.683594 17.453125 20.074219 17.851562 C 19.484375 18.238281 19.335938 18.355469 19.335938 18.40625 C 19.335938 18.4375 19.433594 18.550781 19.589844 18.707031 L 19.847656 18.960938 L 19.667969 19.128906 C 19.332031 19.445312 18.792969 19.816406 18.386719 20.019531 C 17.644531 20.394531 16.859375 20.472656 16.347656 20.226562 C 15.917969 20.019531 15.664062 19.585938 15.621094 18.980469 C 15.605469 18.777344 15.582031 16.273438 15.578125 14.378906 C 15.574219 13.566406 15.589844 13.335938 15.660156 13.183594 C 15.710938 13.074219 15.882812 13.042969 16.429688 13.042969 C 16.90625 13.042969 16.910156 13.042969 17.015625 13.105469 C 17.074219 13.140625 17.199219 13.234375 17.292969 13.320312 C 17.421875 13.4375 17.488281 13.480469 17.582031 13.5 C 17.816406 13.554688 18.007812 13.492188 18.207031 13.285156 C 18.355469 13.132812 18.414062 13.015625 18.449219 12.816406 C 18.496094 12.546875 18.414062 12.273438 18.230469 12.089844 C 18.089844 11.949219 17.957031 11.898438 17.730469 11.898438 C 17.5 11.898438 17.4375 11.925781 17.214844 12.140625 C 17.125 12.226562 17.015625 12.316406 16.972656 12.335938 C 16.847656 12.402344 16.457031 12.429688 16.125 12.402344 C 15.78125 12.371094 15.699219 12.339844 15.652344 12.21875 C 15.570312 12.019531 15.519531 11.359375 15.558594 11.042969 C 15.601562 10.734375 15.613281 10.71875 15.933594 10.570312 C 16.167969 10.457031 16.234375 10.414062 16.402344 10.253906 C 16.660156 10.007812 16.808594 9.8125 16.949219 9.527344 C 17.144531 9.121094 17.21875 8.71875 17.175781 8.277344 C 17.089844 7.332031 16.449219 6.578125 15.527344 6.335938 C 15.238281 6.261719 14.707031 6.238281 14.460938 6.289062 Z M 15.335938 7.300781 C 15.667969 7.371094 15.964844 7.578125 16.085938 7.820312 C 16.238281 8.125 16.269531 8.59375 16.160156 8.917969 C 16.011719 9.371094 15.695312 9.679688 15.289062 9.777344 C 15.113281 9.816406 14.753906 9.8125 14.589844 9.765625 C 14.222656 9.65625 13.894531 9.398438 13.761719 9.113281 C 13.664062 8.902344 13.628906 8.738281 13.632812 8.484375 C 13.632812 7.964844 13.902344 7.574219 14.394531 7.378906 C 14.675781 7.269531 15.042969 7.238281 15.335938 7.300781 Z M 15.335938 7.300781 "/>
</g>
</svg>
