<?xml version="1.0" encoding="UTF-8"?>
<svg xmlns="http://www.w3.org/2000/svg" xmlns:xlink="http://www.w3.org/1999/xlink" width="50px" height="50px" viewBox="0 0 50 50" version="1.1">
<g id="surface1">
<path style=" stroke:none;fill-rule:nonzero;fill:rgb(24.705882%,31.764706%,70.980392%);fill-opacity:1;" d="M 24.101562 10.484375 C 23.332031 10.648438 22.761719 10.980469 22.183594 11.59375 C 21.671875 12.140625 21.390625 12.675781 21.246094 13.378906 C 21.113281 14.015625 21.167969 14.785156 21.382812 15.417969 C 21.675781 16.273438 22.222656 16.90625 23.28125 17.613281 C 23.84375 17.984375 23.847656 17.988281 23.902344 18.183594 C 23.9375 18.316406 23.953125 18.640625 23.957031 19.21875 C 23.960938 19.957031 23.949219 20.085938 23.882812 20.269531 C 23.75 20.640625 23.742188 20.644531 22.644531 20.644531 L 21.699219 20.644531 L 21.371094 20.359375 C 20.902344 19.949219 20.800781 19.902344 20.371094 19.902344 C 20.054688 19.902344 20 19.914062 19.808594 20.019531 C 19.371094 20.261719 19.15625 20.691406 19.1875 21.269531 C 19.207031 21.679688 19.339844 21.964844 19.652344 22.273438 C 19.898438 22.519531 20.046875 22.578125 20.390625 22.578125 C 20.660156 22.578125 20.871094 22.480469 21.074219 22.265625 C 21.292969 22.035156 21.605469 21.84375 21.886719 21.769531 C 22.414062 21.632812 23.375 21.722656 23.757812 21.949219 L 23.898438 22.035156 L 23.921875 24.464844 C 23.976562 30.164062 23.980469 32.195312 23.945312 32.394531 C 23.820312 33.046875 23.296875 33.589844 22.53125 33.855469 C 22.144531 33.988281 21.433594 34.023438 20.898438 33.929688 C 19.957031 33.765625 18.992188 33.308594 17.96875 32.535156 C 17.722656 32.351562 17.398438 32.082031 17.246094 31.941406 L 16.972656 31.6875 L 17.292969 31.390625 C 17.640625 31.066406 17.773438 30.882812 17.773438 30.734375 C 17.773438 30.65625 17.699219 30.589844 17.375 30.371094 C 16.242188 29.605469 15.144531 28.703125 14.792969 28.242188 C 14.683594 28.101562 14.570312 27.988281 14.535156 27.988281 C 14.410156 27.988281 14.199219 28.925781 14.140625 29.761719 C 14.046875 31.058594 14.257812 32.433594 14.660156 33.183594 C 14.769531 33.390625 14.800781 33.417969 14.914062 33.429688 C 15.019531 33.441406 15.082031 33.410156 15.246094 33.269531 C 15.496094 33.058594 15.589844 33.007812 15.734375 33.007812 C 15.828125 33.007812 15.875 33.050781 16.054688 33.308594 C 16.792969 34.367188 17.808594 35.394531 18.734375 36.015625 C 19.421875 36.484375 20.019531 36.75 21.484375 37.246094 C 23.125 37.800781 23.363281 37.90625 24.046875 38.378906 C 24.4375 38.652344 24.644531 38.894531 24.847656 39.304688 C 24.917969 39.453125 25 39.570312 25.027344 39.570312 C 25.050781 39.570312 25.128906 39.464844 25.195312 39.339844 C 25.417969 38.921875 25.691406 38.632812 26.175781 38.308594 C 26.710938 37.953125 26.773438 37.921875 28.261719 37.359375 C 30.027344 36.6875 30.375 36.53125 31.058594 36.109375 C 32.0625 35.488281 33.066406 34.542969 33.914062 33.417969 C 34.105469 33.160156 34.300781 32.9375 34.34375 32.921875 C 34.453125 32.878906 34.636719 32.972656 34.859375 33.183594 C 34.972656 33.292969 35.070312 33.355469 35.105469 33.34375 C 35.136719 33.332031 35.195312 33.320312 35.230469 33.320312 C 35.3125 33.320312 35.53125 32.871094 35.664062 32.441406 C 35.886719 31.703125 36 30.296875 35.902344 29.457031 C 35.84375 28.960938 35.707031 28.402344 35.5625 28.085938 C 35.402344 27.722656 35.382812 27.722656 35.199219 28.074219 C 34.871094 28.699219 34.472656 29.085938 33.457031 29.753906 C 32.476562 30.398438 32.226562 30.589844 32.226562 30.675781 C 32.226562 30.726562 32.390625 30.917969 32.652344 31.179688 L 33.078125 31.601562 L 32.78125 31.878906 C 32.21875 32.40625 31.324219 33.027344 30.644531 33.367188 C 29.410156 33.988281 28.101562 34.121094 27.246094 33.710938 C 26.527344 33.367188 26.105469 32.644531 26.035156 31.636719 C 26.011719 31.296875 25.972656 27.125 25.960938 23.964844 C 25.957031 22.609375 25.984375 22.226562 26.101562 21.972656 C 26.183594 21.792969 26.46875 21.738281 27.382812 21.738281 C 28.179688 21.738281 28.183594 21.738281 28.359375 21.84375 C 28.457031 21.898438 28.664062 22.058594 28.820312 22.199219 C 29.039062 22.398438 29.148438 22.464844 29.300781 22.5 C 29.691406 22.59375 30.015625 22.484375 30.347656 22.140625 C 30.589844 21.890625 30.691406 21.691406 30.75 21.363281 C 30.828125 20.910156 30.691406 20.457031 30.386719 20.152344 C 30.148438 19.914062 29.925781 19.828125 29.550781 19.828125 C 29.167969 19.828125 29.0625 19.875 28.691406 20.234375 C 28.542969 20.378906 28.359375 20.527344 28.285156 20.5625 C 28.082031 20.667969 27.425781 20.71875 26.875 20.671875 C 26.300781 20.621094 26.164062 20.566406 26.085938 20.367188 C 25.953125 20.03125 25.867188 18.929688 25.933594 18.40625 C 26 17.890625 26.019531 17.863281 26.554688 17.617188 C 26.949219 17.429688 27.054688 17.359375 27.339844 17.089844 C 27.769531 16.679688 28.011719 16.355469 28.246094 15.878906 C 28.574219 15.199219 28.699219 14.53125 28.628906 13.796875 C 28.480469 12.21875 27.414062 10.960938 25.878906 10.5625 C 25.394531 10.4375 24.511719 10.398438 24.101562 10.484375 Z M 25.558594 12.167969 C 26.113281 12.285156 26.609375 12.628906 26.8125 13.035156 C 27.0625 13.539062 27.117188 14.324219 26.933594 14.863281 C 26.683594 15.617188 26.160156 16.132812 25.484375 16.292969 C 25.1875 16.363281 24.589844 16.351562 24.316406 16.273438 C 23.707031 16.09375 23.160156 15.664062 22.9375 15.191406 C 22.773438 14.839844 22.714844 14.566406 22.71875 14.140625 C 22.71875 13.277344 23.171875 12.625 23.992188 12.300781 C 24.457031 12.117188 25.074219 12.0625 25.558594 12.167969 Z M 25.558594 12.167969 "/>
</g>
</svg>
