<?xml version="1.0" encoding="UTF-8"?>
<svg xmlns="http://www.w3.org/2000/svg" xmlns:xlink="http://www.w3.org/1999/xlink" width="70px" height="70px" viewBox="0 0 70 70" version="1.1">
<g id="surface1">
<path style=" stroke:none;fill-rule:nonzero;fill:rgb(24.705882%,31.764706%,70.980392%);fill-opacity:1;" d="M 33.742188 14.679688 C 32.664062 14.90625 31.867188 15.371094 31.058594 16.230469 C 30.339844 16.996094 29.945312 17.746094 29.746094 18.730469 C 29.558594 19.621094 29.636719 20.699219 29.9375 21.585938 C 30.347656 22.78125 31.113281 23.667969 32.59375 24.660156 C 33.382812 25.179688 33.386719 25.183594 33.464844 25.457031 C 33.511719 25.644531 33.535156 26.097656 33.539062 26.90625 C 33.546875 27.941406 33.527344 28.121094 33.4375 28.378906 C 33.25 28.898438 33.238281 28.902344 31.703125 28.902344 L 30.378906 28.902344 L 29.917969 28.503906 C 29.261719 27.929688 29.121094 27.863281 28.519531 27.863281 C 28.078125 27.863281 28 27.878906 27.730469 28.027344 C 27.121094 28.367188 26.820312 28.96875 26.863281 29.777344 C 26.890625 30.351562 27.074219 30.75 27.511719 31.183594 C 27.859375 31.527344 28.066406 31.609375 28.546875 31.609375 C 28.925781 31.609375 29.21875 31.472656 29.503906 31.171875 C 29.808594 30.847656 30.246094 30.582031 30.640625 30.476562 C 31.378906 30.285156 32.726562 30.410156 33.261719 30.730469 L 33.457031 30.847656 L 33.492188 34.25 C 33.566406 42.230469 33.574219 45.074219 33.523438 45.351562 C 33.347656 46.265625 32.617188 47.027344 31.542969 47.398438 C 31.003906 47.582031 30.007812 47.632812 29.257812 47.5 C 27.941406 47.273438 26.589844 46.632812 25.15625 45.550781 C 24.8125 45.292969 24.359375 44.914062 24.144531 44.71875 L 23.761719 44.363281 L 24.210938 43.945312 C 24.695312 43.492188 24.882812 43.234375 24.882812 43.027344 C 24.882812 42.917969 24.777344 42.824219 24.324219 42.519531 C 22.738281 41.449219 21.203125 40.183594 20.710938 39.539062 C 20.558594 39.34375 20.398438 39.183594 20.347656 39.183594 C 20.175781 39.183594 19.878906 40.496094 19.796875 41.667969 C 19.664062 43.480469 19.960938 45.40625 20.523438 46.457031 C 20.675781 46.746094 20.722656 46.785156 20.878906 46.800781 C 21.027344 46.816406 21.113281 46.773438 21.34375 46.578125 C 21.695312 46.28125 21.824219 46.210938 22.027344 46.210938 C 22.160156 46.210938 22.226562 46.269531 22.476562 46.632812 C 23.511719 48.113281 24.933594 49.550781 26.226562 50.421875 C 27.191406 51.078125 28.027344 51.449219 30.078125 52.144531 C 32.375 52.921875 32.707031 53.070312 33.664062 53.730469 C 34.210938 54.113281 34.503906 54.453125 34.785156 55.027344 C 34.886719 55.234375 35 55.398438 35.039062 55.398438 C 35.070312 55.398438 35.179688 55.25 35.273438 55.074219 C 35.585938 54.492188 35.96875 54.085938 36.644531 53.632812 C 37.394531 53.132812 37.484375 53.089844 39.566406 52.304688 C 42.039062 51.363281 42.523438 51.144531 43.480469 50.554688 C 44.886719 49.683594 46.292969 48.359375 47.480469 46.785156 C 47.746094 46.425781 48.019531 46.113281 48.082031 46.089844 C 48.234375 46.03125 48.492188 46.160156 48.804688 46.457031 C 48.960938 46.609375 49.097656 46.699219 49.148438 46.679688 C 49.191406 46.664062 49.273438 46.648438 49.324219 46.648438 C 49.4375 46.648438 49.742188 46.019531 49.929688 45.417969 C 50.242188 44.382812 50.398438 42.414062 50.261719 41.238281 C 50.179688 40.546875 49.988281 39.761719 49.789062 39.320312 C 49.5625 38.8125 49.535156 38.8125 49.277344 39.304688 C 48.820312 40.179688 48.261719 40.71875 46.839844 41.65625 C 45.46875 42.558594 45.117188 42.824219 45.117188 42.945312 C 45.117188 43.015625 45.347656 43.285156 45.714844 43.652344 L 46.308594 44.242188 L 45.894531 44.628906 C 45.105469 45.367188 43.855469 46.238281 42.902344 46.714844 C 41.175781 47.582031 39.34375 47.769531 38.144531 47.195312 C 37.136719 46.714844 36.546875 45.703125 36.449219 44.292969 C 36.417969 43.816406 36.363281 37.976562 36.34375 33.550781 C 36.339844 31.652344 36.378906 31.117188 36.542969 30.761719 C 36.65625 30.511719 37.054688 30.433594 38.335938 30.433594 C 39.453125 30.433594 39.457031 30.433594 39.703125 30.582031 C 39.839844 30.65625 40.128906 30.882812 40.347656 31.078125 C 40.65625 31.359375 40.808594 31.449219 41.019531 31.5 C 41.566406 31.632812 42.023438 31.476562 42.488281 30.996094 C 42.824219 30.648438 42.96875 30.367188 43.050781 29.910156 C 43.160156 29.273438 42.96875 28.640625 42.542969 28.214844 C 42.207031 27.878906 41.894531 27.757812 41.371094 27.757812 C 40.835938 27.757812 40.6875 27.824219 40.167969 28.328125 C 39.960938 28.53125 39.703125 28.738281 39.597656 28.789062 C 39.316406 28.933594 38.394531 29.007812 37.625 28.941406 C 36.820312 28.871094 36.628906 28.792969 36.519531 28.515625 C 36.335938 28.042969 36.214844 26.5 36.308594 25.769531 C 36.398438 25.046875 36.425781 25.007812 37.175781 24.664062 C 37.730469 24.402344 37.875 24.304688 38.277344 23.925781 C 38.878906 23.351562 39.214844 22.898438 39.542969 22.230469 C 40.003906 21.277344 40.179688 20.34375 40.082031 19.316406 C 39.871094 17.105469 38.378906 15.34375 36.230469 14.789062 C 35.550781 14.613281 34.316406 14.558594 33.742188 14.679688 Z M 35.78125 17.035156 C 36.558594 17.199219 37.253906 17.679688 37.539062 18.25 C 37.886719 18.953125 37.964844 20.054688 37.707031 20.808594 C 37.355469 21.863281 36.625 22.585938 35.679688 22.808594 C 35.261719 22.910156 34.425781 22.890625 34.042969 22.78125 C 33.191406 22.53125 32.425781 21.929688 32.113281 21.269531 C 31.882812 20.777344 31.800781 20.394531 31.804688 19.796875 C 31.804688 18.589844 32.441406 17.675781 33.589844 17.222656 C 34.238281 16.964844 35.105469 16.886719 35.78125 17.035156 Z M 35.78125 17.035156 "/>
</g>
</svg>
