<?xml version="1.0" standalone="no"?>
<svg viewBox="0 0 200 200" xmlns="http://www.w3.org/2000/svg">
  <path fill="#2875DE" d="M34,-43.3C47.8,-36.8,65.3,-31.8,74.4,-20.3C83.5,-8.7,84.3,9.5,75.9,21.3C67.4,33.1,49.7,38.6,35.5,42.5C21.3,46.4,10.7,48.9,-1.7,51.2C-14.1,53.6,-28.1,55.8,-41.1,51.5C-54,47.1,-65.8,36.2,-68.1,23.4C-70.5,10.7,-63.5,-3.8,-60.3,-21.5C-57.2,-39.2,-57.9,-60,-48.5,-67.9C-39.1,-75.8,-19.6,-70.8,-4.7,-64.2C10.1,-57.7,20.2,-49.7,34,-43.3Z" transform="translate(100 100)" />
</svg>
