<?xml version="1.0" standalone="no"?>
<!DOCTYPE svg PUBLIC "-//W3C//DTD SVG 20010904//EN"
 "http://www.w3.org/TR/2001/REC-SVG-20010904/DTD/svg10.dtd">
<svg version="1.0" xmlns="http://www.w3.org/2000/svg"
 width="768.000000pt" height="1280.000000pt" viewBox="0 0 768.000000 1280.000000"
 preserveAspectRatio="xMidYMid meet">
<metadata>
Created by potrace 1.15, written by Peter Selinger 2001-2017
</metadata>
<g transform="translate(0.000000,1280.000000) scale(0.100000,-0.100000)"
fill="#2196f3" stroke="none">
<path d="M3589 12790 c-1052 -88 -1985 -594 -2494 -1350 -192 -287 -306 -564
-388 -952 -19 -87 -43 -156 -95 -275 -74 -166 -99 -241 -85 -253 4 -4 45 -32
90 -63 78 -53 83 -55 87 -34 3 12 12 67 21 122 32 199 163 523 300 740 136
217 349 456 550 618 466 376 1084 615 1760 681 242 24 407 28 615 16 483 -27
767 -94 1098 -257 383 -188 757 -518 1090 -962 1119 -1496 1268 -3372 410
-5195 -57 -120 -105 -200 -252 -415 -641 -936 -910 -1347 -1139 -1738 -334
-572 -563 -1050 -735 -1538 -33 -93 -87 -247 -121 -340 -65 -186 -108 -289
-166 -405 -152 -305 -347 -506 -592 -611 l-78 -33 -171 1 c-637 5 -1290 211
-1885 595 -272 176 -574 437 -794 688 -127 145 -174 212 -239 339 -132 258
-204 583 -207 933 -1 126 -3 137 -11 88 -6 -30 -36 -176 -69 -325 -82 -382
-83 -384 -83 -545 0 -195 28 -304 118 -455 126 -212 547 -623 956 -934 460
-351 1006 -646 1465 -794 320 -103 488 -132 760 -132 220 1 337 15 533 65 407
105 725 336 875 635 23 46 80 240 202 690 242 890 383 1298 598 1731 181 368
351 614 607 879 430 447 716 855 979 1396 515 1060 693 2274 510 3477 -68 450
-245 1091 -400 1454 -552 1285 -1586 2194 -2749 2413 -238 45 -629 65 -871 45z"/>
<path d="M4110 11291 c-94 -29 -262 -152 -384 -282 -96 -101 -211 -245 -416
-519 -295 -395 -358 -460 -855 -885 -407 -348 -562 -505 -697 -708 -211 -315
-305 -709 -253 -1055 52 -350 156 -590 522 -1207 332 -559 511 -937 564 -1190
17 -81 17 -267 0 -335 -7 -30 -28 -87 -46 -125 -27 -61 -42 -79 -116 -140
-272 -224 -473 -496 -574 -775 -59 -166 -90 -382 -74 -512 23 -190 98 -379
227 -573 185 -279 412 -454 634 -488 82 -13 116 -6 295 59 585 211 1105 659
1466 1263 88 149 284 544 367 741 157 371 259 718 311 1055 29 188 36 526 15
709 -46 399 -204 828 -397 1083 -125 164 -443 553 -640 783 -207 241 -393 437
-357 375 91 -158 121 -213 213 -400 161 -328 314 -706 355 -885 7 -30 32 -93
55 -140 191 -383 287 -816 272 -1229 -14 -382 -103 -723 -288 -1094 -261 -525
-691 -1004 -1287 -1437 -53 -39 -119 -89 -147 -111 -88 -69 -217 -95 -347 -68
-124 26 -274 126 -347 233 -69 102 -89 231 -52 344 10 31 26 91 36 132 40 170
123 288 396 560 173 172 283 299 317 366 17 33 39 101 59 184 27 113 24 369
-6 510 -46 216 -139 454 -286 730 -162 304 -184 348 -219 436 -115 291 -160
536 -160 864 0 209 10 327 49 565 20 122 39 194 101 375 266 781 531 1269 945
1735 111 126 163 178 154 153 -9 -23 3 -19 235 69 310 119 511 161 643 133 52
-10 75 -25 210 -133 483 -384 645 -574 851 -997 36 -74 88 -169 115 -210 46
-69 548 -607 557 -597 10 10 -182 531 -289 787 -174 415 -402 860 -584 1140
-240 367 -500 596 -774 679 -126 39 -299 53 -369 32z"/>
</g>
</svg>
