<?xml version="1.0" encoding="UTF-8"?>
<svg xmlns="http://www.w3.org/2000/svg" xmlns:xlink="http://www.w3.org/1999/xlink" width="50px" height="50px" viewBox="0 0 50 50" version="1.1">
<g id="surface1">
<path style=" stroke:none;fill-rule:nonzero;fill:rgb(37.647059%,49.019608%,54.509804%);fill-opacity:1;" d="M 24.480469 0.980469 C 23.578125 1.113281 22.804688 1.496094 22.167969 2.128906 C 20.820312 3.464844 20.605469 5.566406 21.644531 7.152344 C 21.910156 7.558594 22.332031 7.996094 22.6875 8.234375 L 22.929688 8.402344 L 22.929688 11.796875 L 18.585938 11.796875 C 15.621094 11.796875 14.191406 11.8125 14.085938 11.839844 C 13.898438 11.890625 13.621094 12.164062 13.550781 12.367188 C 13.472656 12.582031 13.472656 14.601562 13.550781 14.816406 C 13.621094 15.019531 13.8125 15.230469 14.003906 15.316406 C 14.152344 15.386719 14.386719 15.390625 18.546875 15.390625 L 22.929688 15.390625 L 22.929688 16.199219 C 22.929688 18.082031 22.726562 27.898438 22.636719 30.429688 C 22.550781 32.847656 22.484375 34.292969 22.417969 35.117188 C 22.371094 35.730469 22.136719 37.644531 22.050781 38.109375 C 21.847656 39.207031 21.457031 39.605469 20.273438 39.917969 C 19.398438 40.148438 18.953125 40.210938 18.203125 40.210938 C 17.585938 40.210938 17.480469 40.199219 17.136719 40.105469 C 16.726562 39.996094 16.132812 39.730469 15.683594 39.453125 C 15.273438 39.203125 14.460938 38.582031 13.867188 38.0625 C 13.375 37.636719 10.859375 35.144531 10.859375 35.085938 C 10.859375 35.070312 11.421875 34.902344 12.109375 34.710938 C 12.796875 34.519531 13.347656 34.347656 13.332031 34.332031 C 13.289062 34.292969 7.597656 31.71875 7.550781 31.71875 C 7.527344 31.71875 7.480469 31.976562 7.445312 32.296875 C 7.042969 35.796875 6.804688 37.949219 6.8125 37.957031 C 6.816406 37.960938 7.273438 37.613281 7.828125 37.183594 C 8.382812 36.753906 8.84375 36.40625 8.847656 36.414062 C 8.867188 36.429688 10.839844 40.164062 11.179688 40.820312 C 11.8125 42.039062 12.4375 42.914062 13.277344 43.75 C 14.308594 44.773438 15.398438 45.4375 16.648438 45.796875 C 17.25 45.972656 17.632812 46.019531 18.691406 46.054688 C 19.78125 46.089844 20.382812 46.15625 21.09375 46.3125 C 22.078125 46.535156 23.019531 46.929688 23.613281 47.371094 C 24.21875 47.820312 24.757812 48.492188 24.953125 49.03125 C 24.988281 49.136719 25.027344 49.21875 25.039062 49.21875 C 25.050781 49.21875 25.105469 49.097656 25.164062 48.953125 C 25.421875 48.320312 25.960938 47.695312 26.644531 47.242188 C 27.777344 46.488281 29.339844 46.085938 31.328125 46.035156 C 32.261719 46.011719 32.5 45.992188 32.949219 45.898438 C 34.792969 45.519531 36.445312 44.390625 37.8125 42.574219 C 38.261719 41.976562 38.527344 41.539062 38.984375 40.664062 C 39.820312 39.050781 41.230469 36.40625 41.257812 36.40625 C 41.269531 36.40625 41.726562 36.75 42.265625 37.171875 C 42.808594 37.589844 43.257812 37.925781 43.269531 37.917969 C 43.285156 37.898438 42.585938 31.714844 42.566406 31.691406 C 42.558594 31.683594 41.238281 32.273438 39.636719 32.996094 C 38.03125 33.722656 36.734375 34.324219 36.75 34.339844 C 36.765625 34.351562 37.304688 34.507812 37.949219 34.683594 C 38.59375 34.863281 39.144531 35.023438 39.175781 35.039062 C 39.273438 35.09375 37.007812 37.378906 35.996094 38.246094 C 34.179688 39.800781 32.910156 40.347656 31.453125 40.199219 C 30.863281 40.140625 29.921875 39.949219 29.472656 39.800781 C 29.023438 39.648438 28.765625 39.5 28.542969 39.265625 C 28.152344 38.84375 28.066406 38.511719 27.8125 36.445312 C 27.652344 35.125 27.582031 34.039062 27.5 31.660156 C 27.480469 31.035156 27.453125 30.273438 27.441406 29.960938 C 27.378906 28.234375 27.253906 22.351562 27.164062 16.984375 L 27.136719 15.390625 L 31.613281 15.382812 L 36.085938 15.371094 L 36.257812 15.253906 C 36.367188 15.175781 36.460938 15.0625 36.535156 14.925781 L 36.640625 14.710938 L 36.640625 12.476562 L 36.539062 12.273438 C 36.429688 12.054688 36.273438 11.914062 36.058594 11.839844 C 35.960938 11.808594 34.71875 11.796875 31.558594 11.796875 L 27.1875 11.796875 L 27.1875 10.769531 C 27.1875 10.203125 27.175781 9.425781 27.164062 9.039062 L 27.140625 8.339844 L 27.347656 8.203125 C 27.460938 8.128906 27.671875 7.949219 27.816406 7.804688 C 29.671875 5.953125 29.292969 2.878906 27.042969 1.511719 C 26.3125 1.066406 25.308594 0.859375 24.480469 0.980469 Z M 25.464844 3.105469 C 26.320312 3.332031 26.914062 4.097656 26.914062 4.972656 C 26.914062 5.996094 26.03125 6.875 25 6.875 C 24.324219 6.875 23.625 6.460938 23.3125 5.875 C 23.011719 5.320312 23.011719 4.605469 23.3125 4.046875 C 23.449219 3.792969 23.832031 3.40625 24.085938 3.273438 C 24.492188 3.054688 25.035156 2.988281 25.464844 3.105469 Z M 25.464844 3.105469 "/>
</g>
</svg>
