<?xml version="1.0" encoding="UTF-8"?>
<svg xmlns="http://www.w3.org/2000/svg" xmlns:xlink="http://www.w3.org/1999/xlink" width="50px" height="51px" viewBox="0 0 50 50" version="1.1">
<g id="surface1">
<path style=" stroke:none;fill-rule:nonzero;fill:rgb(24.705882%,31.764706%,70.980392%);fill-opacity:1;" d="M 18.632812 0.0585938 C 18.167969 0.1875 17.761719 0.523438 17.542969 0.96875 C 17.417969 1.214844 17.410156 1.253906 17.410156 1.660156 C 17.410156 2.058594 17.417969 2.105469 17.535156 2.34375 C 17.601562 2.484375 17.742188 2.6875 17.839844 2.796875 L 18.027344 3 L 18.027344 37.597656 L 9.273438 37.609375 L 0.511719 37.617188 L 0.980469 38.15625 C 2.148438 39.5 3.082031 40.492188 4.425781 41.820312 C 6.847656 44.210938 8.929688 45.9375 11.058594 47.324219 C 13.648438 49.011719 15.734375 49.828125 17.796875 49.964844 C 18.886719 50.039062 20.6875 49.980469 22.136719 49.820312 C 28.398438 49.144531 35.917969 46.332031 43.617188 41.785156 C 45.640625 40.59375 48.308594 38.847656 49.75 37.777344 L 49.96875 37.617188 L 35.058594 37.609375 L 20.152344 37.597656 L 20.140625 20.292969 L 20.132812 2.992188 L 20.246094 2.871094 C 20.71875 2.378906 20.882812 1.742188 20.6875 1.167969 C 20.523438 0.699219 20.238281 0.382812 19.785156 0.167969 C 19.542969 0.0546875 19.441406 0.0273438 19.171875 0.015625 C 18.957031 0.00390625 18.769531 0.0195312 18.632812 0.0585938 Z M 18.632812 0.0585938 "/>
<path style=" stroke:none;fill-rule:nonzero;fill:rgb(24.705882%,31.764706%,70.980392%);fill-opacity:1;" d="M 21.648438 3.5625 C 23.445312 12.761719 24.121094 18.371094 24.050781 23.359375 C 24.019531 25.339844 23.949219 26.371094 23.722656 27.890625 C 23.363281 30.3125 22.675781 32.507812 21.742188 34.226562 L 21.457031 34.753906 L 33.871094 34.777344 C 40.691406 34.789062 46.289062 34.792969 46.296875 34.78125 C 46.34375 34.734375 45.101562 32.046875 44.230469 30.332031 C 41.632812 25.195312 38.695312 20.660156 34.945312 16.015625 C 31.753906 12.058594 27.597656 7.816406 23.210938 4.039062 C 22.410156 3.351562 21.488281 2.578125 21.46875 2.578125 C 21.460938 2.578125 21.542969 3.023438 21.648438 3.5625 Z M 21.648438 3.5625 "/>
<path style=" stroke:none;fill-rule:nonzero;fill:rgb(24.705882%,31.764706%,70.980392%);fill-opacity:1;" d="M 16.757812 13.496094 C 16.757812 13.609375 16.429688 14.933594 16.257812 15.542969 C 15.15625 19.335938 13.296875 22.550781 10.425781 25.621094 C 9.027344 27.121094 7.675781 28.335938 4.488281 30.957031 C 2.234375 32.808594 1.167969 33.71875 0.398438 34.445312 L 0.0195312 34.800781 L 8.410156 34.804688 L 16.796875 34.804688 L 16.796875 24.121094 C 16.796875 18.246094 16.789062 13.4375 16.777344 13.4375 C 16.765625 13.4375 16.757812 13.464844 16.757812 13.496094 Z M 16.757812 13.496094 "/>
</g>
</svg>
