<?xml version="1.0" standalone="no"?>
<!DOCTYPE svg PUBLIC "-//W3C//DTD SVG 20010904//EN"
 "http://www.w3.org/TR/2001/REC-SVG-20010904/DTD/svg10.dtd">
<svg version="1.0" xmlns="http://www.w3.org/2000/svg"
 width="1280.000000pt" height="847.000000pt" viewBox="0 0 1280.000000 847.000000"
 preserveAspectRatio="xMidYMid meet">
<metadata>
Created by potrace 1.15, written by Peter Selinger 2001-2017
</metadata>
<g transform="translate(0.000000,847.000000) scale(0.100000,-0.100000)"
fill="#2196f3" stroke="none">
<path d="M2380 5954 c-25 -8 -87 -21 -138 -29 -73 -11 -107 -22 -160 -51 -131
-74 -178 -94 -231 -101 -42 -5 -63 -14 -90 -38 -45 -41 -212 -101 -238 -86
-15 8 -13 13 17 41 l35 33 -35 -8 c-60 -13 -77 -23 -104 -58 -14 -19 -26 -37
-26 -41 0 -4 -11 -24 -25 -44 -14 -20 -25 -46 -25 -57 0 -32 -28 -65 -55 -65
-13 0 -47 9 -75 20 -28 11 -53 20 -55 20 -15 0 0 -24 36 -57 38 -35 41 -41 36
-81 -5 -49 -23 -72 -82 -106 -59 -35 -156 -142 -206 -228 -91 -155 -180 -399
-214 -583 -9 -49 -26 -128 -36 -175 -21 -90 -22 -70 11 -360 28 -250 29 -251
81 -369 90 -206 101 -233 121 -320 49 -209 80 -307 114 -357 18 -27 37 -66 40
-85 9 -48 31 -87 74 -137 46 -52 60 -103 60 -224 0 -51 7 -124 15 -163 8 -38
15 -80 15 -92 0 -14 -32 -54 -89 -112 l-89 -89 -7 -76 c-4 -42 -4 -91 -1 -110
6 -31 2 -40 -38 -85 -32 -35 -50 -69 -62 -109 -9 -31 -27 -73 -40 -92 -13 -20
-28 -60 -34 -90 -11 -61 -26 -76 -85 -91 -57 -14 -126 -68 -190 -147 -147
-182 -202 -257 -274 -372 -95 -152 -123 -206 -171 -335 -21 -55 -54 -138 -74
-183 -45 -105 -79 -233 -65 -247 14 -14 3283 -19 3309 -5 11 6 20 16 20 23 0
20 -215 383 -285 480 -63 89 -63 103 4 247 32 69 62 136 66 150 15 48 68 146
122 222 83 119 95 153 104 301 9 144 20 190 57 229 41 45 77 51 245 43 156 -7
402 7 487 27 95 23 176 87 231 183 37 64 38 119 4 243 l-26 92 27 83 c15 45
36 97 46 115 11 18 18 39 15 46 -3 7 -47 31 -97 52 l-92 39 43 7 c24 3 80 7
125 7 48 1 85 6 92 13 18 18 15 186 -3 218 -21 37 -19 103 4 124 10 9 46 21
80 27 34 6 78 22 98 36 41 28 45 26 68 -50 23 -75 37 -205 30 -271 -8 -78 -40
-196 -66 -247 -13 -27 -19 -55 -17 -82 l3 -42 28 40 c45 65 86 185 98 289 16
128 1 255 -45 379 -19 51 -37 110 -41 132 -5 34 -22 55 -108 140 -105 103
-206 236 -271 359 -33 64 -36 76 -36 153 0 59 6 100 20 141 29 81 37 180 17
229 -8 21 -18 61 -22 88 -7 50 -56 208 -80 255 -7 14 -27 75 -44 135 -18 61
-53 154 -79 208 l-46 97 22 30 c12 16 22 41 22 54 0 31 30 53 88 62 45 7 51
17 27 44 -13 14 -14 22 -4 44 7 14 19 25 28 24 25 -5 24 27 -3 59 -22 26 -23
34 -16 75 14 74 3 97 -76 150 -57 39 -92 54 -199 83 -71 20 -157 49 -190 64
-33 16 -71 32 -85 36 -14 4 -68 27 -121 51 -95 44 -186 69 -304 84 -153 19
-266 43 -261 56 7 19 -52 28 -122 19 -102 -13 -147 -7 -236 30 -75 31 -94 35
-168 34 -46 -1 -103 -7 -128 -15z"/>
<path d="M10122 5935 c-87 -37 -132 -43 -234 -30 -70 9 -129 0 -122 -19 5 -13
-108 -37 -261 -56 -118 -15 -209 -40 -304 -84 -53 -24 -107 -47 -121 -51 -14
-4 -52 -20 -85 -36 -33 -15 -118 -44 -190 -64 -107 -29 -142 -44 -199 -83 -79
-53 -90 -76 -76 -150 7 -41 6 -49 -16 -75 -27 -32 -28 -64 -3 -59 9 1 21 -10
28 -24 10 -22 9 -30 -4 -44 -24 -27 -18 -37 28 -44 57 -9 87 -31 87 -62 0 -13
10 -38 22 -54 l22 -30 -46 -97 c-26 -54 -61 -147 -79 -208 -17 -60 -37 -121
-44 -135 -24 -47 -73 -205 -80 -255 -4 -27 -14 -67 -22 -88 -20 -49 -12 -148
17 -229 14 -41 20 -82 20 -141 0 -77 -3 -90 -36 -153 -65 -123 -172 -265 -270
-357 -101 -95 -122 -134 -110 -200 13 -70 61 -108 160 -126 33 -6 68 -18 78
-28 22 -20 24 -87 3 -123 -9 -17 -14 -56 -15 -118 l0 -93 40 -39 c31 -30 40
-47 40 -72 0 -19 7 -44 16 -56 8 -12 29 -62 45 -112 l30 -90 -26 -92 c-34
-124 -33 -179 4 -243 55 -96 136 -160 231 -183 85 -20 331 -34 487 -27 168 8
204 2 245 -43 37 -39 48 -85 57 -229 9 -148 21 -182 104 -301 54 -76 107 -174
122 -222 4 -14 34 -81 66 -150 67 -144 67 -158 4 -247 -70 -97 -285 -460 -285
-480 0 -7 9 -17 20 -23 26 -14 3295 -9 3309 5 14 14 -20 142 -65 247 -20 45
-53 128 -74 183 -81 218 -191 393 -445 707 -64 79 -133 133 -190 147 -59 15
-74 30 -85 91 -6 30 -21 70 -34 90 -13 19 -31 61 -40 92 -12 40 -30 74 -62
109 -40 45 -44 54 -38 85 3 19 3 68 -1 110 l-7 76 -89 89 c-57 58 -89 98 -89
112 0 12 7 54 15 92 8 39 15 112 15 163 0 121 14 172 60 224 43 50 65 89 74
137 3 19 22 58 40 85 34 50 65 148 114 357 20 87 31 114 121 320 52 118 53
119 81 369 33 290 32 270 11 360 -10 47 -27 126 -36 175 -34 184 -123 428
-214 583 -50 86 -147 193 -206 228 -59 34 -77 57 -82 106 -5 40 -2 46 36 81
36 33 51 57 36 57 -2 0 -27 -9 -55 -20 -28 -11 -62 -20 -75 -20 -27 0 -55 33
-55 65 0 11 -11 37 -25 57 -14 20 -25 40 -25 44 0 4 -12 22 -26 41 -27 35 -44
45 -104 58 l-35 8 35 -33 c30 -28 32 -33 17 -41 -26 -15 -193 45 -238 86 -27
24 -48 33 -90 38 -53 7 -100 27 -231 101 -53 29 -87 40 -160 51 -51 8 -115 21
-143 30 -27 8 -86 15 -130 15 -68 -1 -92 -6 -163 -35z"/>
<path d="M6926 4124 c-71 -24 -131 -45 -133 -48 -3 -2 25 -39 61 -82 158 -189
289 -473 346 -752 118 -579 -67 -1197 -481 -1611 -49 -49 -86 -92 -82 -94 5
-2 61 -19 126 -38 l117 -33 71 69 c282 277 477 624 555 989 68 323 50 664 -52
975 -71 214 -217 475 -341 607 l-58 62 -129 -44z"/>
<path d="M6405 3949 c-44 -16 -86 -32 -93 -34 -8 -3 6 -27 38 -67 181 -224
299 -532 331 -864 41 -439 -120 -920 -413 -1229 -51 -55 -75 -86 -67 -89 62
-21 154 -46 169 -46 25 0 166 161 251 289 127 189 214 398 261 633 20 96 23
144 23 323 0 179 -3 227 -23 323 -47 233 -139 456 -267 647 -73 110 -103 145
-119 144 -6 0 -47 -14 -91 -30z"/>
<path d="M6006 3814 c-38 -13 -71 -26 -73 -28 -2 -2 22 -40 55 -84 162 -218
264 -517 279 -817 19 -382 -120 -785 -359 -1040 -34 -37 -57 -69 -52 -74 5 -4
38 -16 74 -26 l64 -17 51 57 c244 278 376 608 392 976 12 296 -48 562 -188
828 -51 98 -154 252 -167 250 -4 0 -38 -11 -76 -25z"/>
<path d="M5685 3704 c-22 -8 -46 -16 -52 -19 -8 -3 7 -30 41 -75 104 -139 191
-339 232 -535 29 -139 27 -434 -4 -574 -53 -236 -155 -438 -301 -594 -24 -26
-42 -49 -40 -51 2 -2 29 -11 59 -19 65 -19 60 -22 144 88 82 105 116 161 170
275 163 345 175 769 31 1142 -60 156 -193 379 -225 377 -8 0 -33 -7 -55 -15z"/>
<path d="M5410 3613 c-25 -9 -46 -17 -48 -18 -2 -2 19 -32 47 -68 101 -134
171 -292 212 -477 31 -137 33 -388 5 -520 -47 -220 -140 -406 -279 -557 -27
-30 -35 -44 -26 -47 8 -2 30 -9 49 -16 34 -11 36 -10 78 37 98 110 199 292
245 438 47 152 60 258 55 448 -5 150 -9 187 -36 287 -30 113 -83 250 -124 320
-37 64 -123 190 -128 189 -3 0 -25 -8 -50 -16z"/>
<path d="M5160 3529 c-13 -6 -26 -12 -28 -14 -2 -1 19 -31 47 -66 28 -35 71
-102 95 -149 208 -405 153 -937 -130 -1237 -33 -35 -58 -66 -55 -67 3 -2 23
-8 43 -14 36 -10 39 -8 70 26 329 364 375 945 111 1396 -78 133 -96 148 -153
125z"/>
<path d="M4955 3458 c-42 -15 -42 -15 -13 -46 163 -176 247 -428 235 -702 -7
-158 -31 -255 -99 -389 -41 -82 -67 -120 -128 -182 l-76 -79 33 -11 c27 -9 38
-8 57 5 33 21 141 166 175 235 147 292 147 657 0 954 -42 86 -129 219 -145
223 -5 1 -22 -2 -39 -8z"/>
<path d="M4750 3389 c-13 -6 -25 -11 -27 -13 -1 -1 21 -27 50 -58 99 -103 170
-252 198 -415 25 -142 1 -355 -55 -488 -25 -58 -102 -169 -145 -208 -45 -40
-53 -59 -42 -89 9 -22 13 -19 79 47 279 284 309 760 69 1120 -41 62 -86 115
-96 114 -3 0 -17 -5 -31 -10z"/>
</g>
</svg>
