<?xml version="1.0" encoding="UTF-8"?>
<svg xmlns="http://www.w3.org/2000/svg" xmlns:xlink="http://www.w3.org/1999/xlink" width="36px" height="50px" viewBox="0 0 36 50" version="1.1">
<g id="surface1">
<path style=" stroke:none;fill-rule:nonzero;fill:rgb(12.941176%,58.823529%,95.294118%);fill-opacity:1;" d="M 16.820312 0.0429688 C 11.984375 0.386719 7.472656 2.773438 4.347656 6.652344 C 2.625 8.785156 1.34375 11.351562 0.691406 13.984375 C 0.292969 15.597656 0.171875 16.53125 0.0703125 18.828125 C -0.0234375 20.917969 0.0117188 21.503906 0.253906 22.011719 C 0.371094 22.246094 0.425781 22.3125 0.71875 22.550781 C 1.207031 22.945312 1.628906 23.089844 2.378906 23.113281 C 3.023438 23.136719 3.492188 23.066406 4.320312 22.8125 C 4.699219 22.695312 5.976562 22.238281 6.652344 21.972656 C 6.722656 21.945312 7.082031 22.417969 7.390625 22.964844 L 7.585938 23.304688 L 7.429688 23.867188 C 6.925781 25.6875 6.691406 27.371094 6.660156 29.371094 C 6.636719 30.679688 6.667969 31.394531 6.800781 32.511719 L 6.867188 33.09375 L 6.449219 33.742188 C 6.21875 34.101562 5.792969 34.765625 5.5 35.21875 C 4.0625 37.429688 3.441406 38.839844 3.203125 40.429688 C 3.109375 41.039062 3.109375 42.164062 3.203125 42.792969 C 3.476562 44.660156 4.265625 46.246094 5.597656 47.605469 L 5.832031 47.84375 L 5.644531 48.113281 C 5.539062 48.257812 5.390625 48.457031 5.3125 48.554688 C 5.234375 48.652344 5.203125 48.707031 5.242188 48.675781 C 5.277344 48.648438 5.4375 48.457031 5.589844 48.257812 C 5.746094 48.054688 5.875 47.890625 5.882812 47.890625 C 5.890625 47.890625 6.039062 48.003906 6.210938 48.140625 C 6.863281 48.664062 7.605469 49.105469 8.339844 49.40625 C 8.738281 49.570312 9.480469 49.816406 9.503906 49.792969 C 9.511719 49.785156 9.316406 49.710938 9.066406 49.632812 C 8.148438 49.332031 7.035156 48.699219 6.265625 48.046875 L 5.945312 47.773438 L 6.175781 47.414062 C 6.484375 46.945312 6.984375 45.960938 7.214844 45.382812 C 7.429688 44.832031 7.671875 44.03125 7.785156 43.472656 C 7.832031 43.25 7.878906 43.023438 7.890625 42.96875 C 7.910156 42.886719 7.941406 42.933594 8.117188 43.261719 C 8.921875 44.789062 10.199219 45.929688 11.835938 46.582031 C 12.285156 46.757812 13.085938 46.992188 13.238281 46.988281 C 13.28125 46.988281 13.09375 46.925781 12.824219 46.851562 C 11.585938 46.507812 10.511719 45.882812 9.597656 44.964844 C 9.027344 44.390625 8.691406 43.929688 8.308594 43.167969 L 8.003906 42.5625 L 8.023438 42.09375 C 8.0625 41.125 8.035156 38.78125 7.976562 38.210938 L 7.917969 37.648438 L 8.0625 37.25 C 8.371094 36.410156 8.835938 35.460938 9.671875 33.964844 C 10.53125 32.433594 11.039062 31.378906 11.335938 30.507812 C 11.667969 29.535156 11.796875 28.863281 11.828125 27.925781 C 11.910156 25.640625 11.066406 23.414062 9.511719 21.8125 C 9.320312 21.617188 9.164062 21.4375 9.164062 21.414062 C 9.164062 21.332031 9.339844 21.324219 10.128906 21.363281 C 11.316406 21.425781 11.3125 21.425781 11.441406 21.617188 C 11.632812 21.886719 12.105469 22.765625 12.335938 23.28125 C 13.035156 24.816406 13.457031 26.332031 13.671875 28.125 C 13.757812 28.828125 13.769531 30.660156 13.695312 31.300781 L 13.644531 31.722656 L 13.226562 32.199219 C 11.835938 33.765625 11.222656 34.988281 11.113281 36.40625 C 11.085938 36.765625 11.136719 37.304688 11.238281 37.675781 C 11.320312 37.988281 11.566406 38.507812 11.761719 38.792969 L 11.921875 39.027344 L 11.933594 39.855469 C 11.953125 41 12.097656 41.703125 12.503906 42.644531 C 13.191406 44.226562 14.496094 45.546875 16.039062 46.234375 C 16.207031 46.308594 16.378906 46.386719 16.421875 46.40625 C 16.683594 46.519531 17.648438 46.78125 17.6875 46.746094 C 17.695312 46.734375 17.574219 46.695312 17.417969 46.660156 C 17.046875 46.570312 16.40625 46.332031 15.996094 46.128906 C 13.832031 45.050781 12.382812 42.871094 12.238281 40.46875 C 12.222656 40.199219 12.21875 39.851562 12.230469 39.695312 L 12.253906 39.40625 L 12.351562 39.511719 C 12.742188 39.9375 13.574219 40.515625 14.828125 41.230469 C 15.273438 41.484375 15.804688 41.800781 16.007812 41.933594 L 16.382812 42.171875 L 16.632812 42.675781 C 17.042969 43.515625 17.429688 44.058594 18.09375 44.742188 L 18.507812 45.164062 L 18.371094 45.28125 C 18.109375 45.5 17.414062 45.945312 17.023438 46.136719 C 16.589844 46.351562 16.507812 46.421875 16.886719 46.253906 C 17.25 46.09375 17.75 45.808594 18.15625 45.523438 L 18.519531 45.277344 L 18.542969 45.382812 C 18.554688 45.441406 18.578125 45.683594 18.589844 45.925781 C 18.648438 46.878906 18.394531 47.824219 17.839844 48.679688 C 17.738281 48.835938 17.679688 48.9375 17.710938 48.90625 C 17.859375 48.765625 18.21875 48.125 18.367188 47.761719 C 18.621094 47.105469 18.664062 46.84375 18.664062 46.003906 C 18.664062 45.601562 18.675781 45.273438 18.6875 45.273438 C 18.703125 45.273438 18.734375 45.300781 18.761719 45.335938 C 18.863281 45.449219 19.640625 45.941406 20.03125 46.136719 C 20.710938 46.476562 21.210938 46.652344 21.945312 46.820312 C 22.550781 46.957031 22.566406 46.929688 21.96875 46.78125 C 20.855469 46.5 19.90625 46.046875 19.058594 45.394531 C 18.933594 45.296875 18.796875 45.195312 18.765625 45.171875 C 18.714844 45.132812 18.726562 45.109375 18.839844 45.015625 C 19.382812 44.578125 20.085938 43.804688 20.492188 43.203125 C 20.625 43.007812 20.738281 42.851562 20.746094 42.851562 C 20.75 42.851562 20.898438 43.023438 21.074219 43.234375 C 21.429688 43.660156 21.933594 44.15625 22.382812 44.515625 C 22.699219 44.773438 23.324219 45.203125 23.496094 45.277344 L 23.601562 45.324219 L 23.601562 45.78125 C 23.601562 46.582031 23.78125 47.304688 24.152344 47.996094 L 24.34375 48.355469 L 24.101562 48.53125 C 23.691406 48.820312 23.40625 48.992188 22.914062 49.246094 C 22.652344 49.378906 22.460938 49.492188 22.480469 49.492188 C 22.574219 49.492188 23.492188 49.011719 23.933594 48.730469 L 24.398438 48.433594 L 24.5 48.542969 L 24.59375 48.652344 L 24.429688 48.410156 L 24.773438 48.140625 C 25.203125 47.808594 25.945312 47.066406 26.257812 46.667969 C 26.476562 46.382812 26.5 46.363281 26.609375 46.386719 C 26.675781 46.398438 26.835938 46.417969 26.964844 46.425781 C 27.1875 46.441406 27.183594 46.441406 26.894531 46.390625 C 26.726562 46.359375 26.574219 46.328125 26.566406 46.316406 C 26.554688 46.308594 26.65625 46.132812 26.789062 45.933594 C 27.152344 45.378906 27.625 44.398438 27.847656 43.730469 C 28.152344 42.808594 28.273438 42.097656 28.34375 40.859375 L 28.367188 40.449219 L 28.585938 40.316406 C 29.609375 39.695312 30.445312 38.832031 30.839844 37.996094 C 31.085938 37.46875 31.167969 37.070312 31.167969 36.40625 C 31.167969 35.550781 30.980469 34.820312 30.539062 33.988281 C 30.089844 33.144531 29.585938 32.492188 28.28125 31.09375 C 27.855469 30.632812 27.34375 30.0625 27.144531 29.828125 C 26.746094 29.347656 26.753906 29.375 26.828125 28.75 C 26.925781 27.980469 27.179688 26.949219 27.476562 26.144531 C 27.695312 25.550781 28.320312 24.328125 28.691406 23.773438 C 29.074219 23.207031 29.515625 22.644531 29.894531 22.253906 L 30.152344 21.988281 L 30.800781 22.207031 C 31.59375 22.476562 32.355469 22.671875 32.832031 22.734375 C 33.269531 22.792969 33.945312 22.765625 34.277344 22.675781 C 34.796875 22.539062 35.378906 22.171875 35.605469 21.84375 C 35.777344 21.597656 35.910156 21.15625 35.960938 20.660156 C 36.011719 20.144531 35.945312 17.601562 35.855469 16.757812 C 35.480469 13.246094 34.171875 9.894531 32.082031 7.128906 C 31.390625 6.207031 30.375 5.125 29.46875 4.332031 C 27.425781 2.546875 24.960938 1.234375 22.402344 0.566406 C 20.613281 0.0976562 18.636719 -0.0859375 16.820312 0.0429688 Z M 26.378906 21.566406 C 24.890625 23.15625 24.394531 25.496094 25.101562 27.59375 C 25.246094 28.027344 25.578125 28.679688 25.898438 29.152344 L 26.144531 29.519531 L 26.148438 30.078125 C 26.171875 31.484375 26.359375 32.554688 27.105469 35.5 C 27.695312 37.820312 27.921875 38.957031 27.988281 40 L 28.011719 40.371094 L 27.488281 40.679688 C 26.738281 41.125 25.910156 41.667969 25.5625 41.945312 C 25.167969 42.265625 24.640625 42.820312 24.410156 43.15625 C 24.0625 43.683594 23.742188 44.46875 23.660156 45.011719 C 23.644531 45.113281 23.621094 45.195312 23.605469 45.195312 C 23.5625 45.195312 23.011719 44.8125 22.664062 44.542969 C 22.105469 44.101562 21.421875 43.382812 21.007812 42.804688 L 20.875 42.621094 L 21.097656 42.179688 C 21.507812 41.335938 21.757812 40.546875 21.917969 39.523438 C 21.996094 39.03125 22.003906 38.816406 22.007812 37.695312 C 22.007812 36.246094 21.988281 36.027344 21.652344 33.664062 C 21.535156 32.832031 21.4375 32.117188 21.4375 32.074219 C 21.4375 32.03125 21.765625 31.566406 22.160156 31.042969 C 22.554688 30.515625 23.035156 29.855469 23.222656 29.574219 C 23.621094 28.980469 24.085938 28.109375 24.28125 27.578125 C 24.804688 26.179688 24.839844 24.726562 24.382812 23.320312 C 24.269531 22.96875 23.945312 22.257812 23.753906 21.945312 L 23.667969 21.800781 L 23.773438 21.664062 C 23.832031 21.585938 23.921875 21.515625 23.96875 21.503906 C 24.40625 21.40625 26.578125 21.191406 26.664062 21.238281 C 26.671875 21.242188 26.542969 21.390625 26.378906 21.566406 Z M 28.421875 21.449219 C 28.964844 21.582031 29.269531 21.6875 29.230469 21.734375 C 29.210938 21.757812 29.046875 21.964844 28.863281 22.191406 C 27.789062 23.519531 26.972656 25.160156 26.53125 26.859375 C 26.398438 27.371094 26.238281 28.207031 26.238281 28.382812 C 26.238281 28.554688 26.175781 28.480469 25.988281 28.09375 C 25.605469 27.289062 25.472656 26.703125 25.472656 25.78125 C 25.476562 24.84375 25.640625 24.15625 26.039062 23.359375 C 26.394531 22.660156 26.921875 22.039062 27.574219 21.550781 C 27.902344 21.304688 27.839844 21.3125 28.421875 21.449219 Z M 8.074219 21.617188 C 8.144531 21.671875 8.144531 21.683594 8.050781 21.941406 C 7.996094 22.085938 7.941406 22.238281 7.925781 22.277344 C 7.902344 22.328125 7.851562 22.277344 7.6875 22.023438 C 7.566406 21.847656 7.476562 21.703125 7.484375 21.695312 C 7.503906 21.675781 7.890625 21.566406 7.945312 21.566406 C 7.976562 21.566406 8.035156 21.589844 8.074219 21.617188 Z M 13.714844 21.796875 L 14.957031 21.992188 L 15.140625 22.148438 C 15.550781 22.492188 15.980469 23.070312 16.265625 23.652344 C 16.679688 24.488281 16.816406 25.09375 16.8125 26.035156 C 16.8125 26.988281 16.6875 27.558594 16.289062 28.378906 C 15.953125 29.070312 15.265625 30.011719 14.558594 30.742188 L 14.273438 31.035156 L 14.292969 30.878906 C 14.351562 30.460938 14.367188 28.800781 14.320312 28.21875 C 14.152344 26.007812 13.539062 23.789062 12.59375 21.972656 C 12.488281 21.769531 12.421875 21.601562 12.441406 21.601562 C 12.464844 21.601562 13.039062 21.691406 13.714844 21.796875 Z M 22.65625 21.792969 C 22.65625 21.8125 22.574219 21.96875 22.472656 22.136719 C 21.988281 22.949219 21.457031 24.171875 21.167969 25.171875 C 20.589844 27.136719 20.484375 29.042969 20.828125 31.480469 L 20.886719 31.886719 L 20.660156 32.242188 C 19.769531 33.617188 19.3125 34.769531 19.089844 36.210938 C 19.007812 36.761719 18.996094 38.125 19.070312 38.652344 C 19.253906 39.9375 19.710938 41.191406 20.382812 42.28125 L 20.625 42.667969 L 20.554688 42.789062 C 20.363281 43.117188 19.957031 43.691406 19.675781 44.023438 C 19.320312 44.445312 18.695312 45.050781 18.636719 45.03125 C 18.613281 45.023438 18.539062 44.839844 18.46875 44.625 C 18.164062 43.710938 17.59375 42.886719 16.855469 42.300781 C 16.644531 42.132812 16.632812 42.113281 16.503906 41.71875 C 16.242188 40.921875 16.1875 40.523438 16.1875 39.492188 C 16.191406 38.515625 16.21875 38.269531 16.425781 37.441406 C 16.679688 36.453125 17.011719 35.597656 17.953125 33.539062 C 18.878906 31.519531 19.210938 30.660156 19.457031 29.671875 C 19.90625 27.828125 19.820312 25.96875 19.199219 24.238281 C 18.976562 23.617188 18.5625 22.777344 18.289062 22.378906 L 18.214844 22.28125 L 18.917969 22.234375 C 19.679688 22.183594 20.707031 22.054688 21.714844 21.878906 C 22.40625 21.757812 22.65625 21.734375 22.65625 21.792969 Z M 16.777344 22.210938 L 17.199219 22.238281 L 17.410156 22.523438 C 18.898438 24.519531 19.425781 27.089844 18.863281 29.589844 C 18.644531 30.539062 18.320312 31.453125 17.542969 33.261719 C 16.882812 34.800781 16.671875 35.328125 16.441406 36.015625 C 16.023438 37.269531 15.851562 38.222656 15.851562 39.292969 C 15.851562 40.183594 15.933594 40.71875 16.230469 41.753906 C 16.253906 41.835938 16.226562 41.824219 15.960938 41.648438 C 15.796875 41.539062 15.339844 41.253906 14.949219 41.015625 C 13.5625 40.179688 12.953125 39.726562 12.492188 39.191406 L 12.285156 38.949219 L 12.335938 38.605469 C 12.429688 38.023438 12.730469 36.902344 13.074219 35.839844 C 13.734375 33.820312 13.890625 33.285156 14.0625 32.410156 L 14.152344 31.949219 L 14.640625 31.453125 C 16.375 29.667969 17.03125 28.648438 17.371094 27.207031 C 17.472656 26.773438 17.480469 26.675781 17.480469 25.917969 C 17.480469 25.21875 17.46875 25.039062 17.394531 24.703125 C 17.21875 23.894531 16.890625 23.125 16.46875 22.507812 C 16.230469 22.164062 16.214844 22.128906 16.300781 22.160156 C 16.332031 22.171875 16.542969 22.195312 16.777344 22.210938 Z M 9.050781 22.488281 C 10.039062 23.503906 10.746094 24.851562 11.035156 26.269531 C 11.296875 27.570312 11.238281 28.871094 10.851562 30.164062 C 10.613281 30.976562 10.25 31.789062 9.242188 33.769531 C 8.6875 34.863281 8.140625 35.988281 8.03125 36.269531 C 7.921875 36.546875 7.824219 36.75 7.8125 36.71875 C 7.804688 36.6875 7.699219 35.886719 7.574219 34.941406 L 7.359375 33.222656 L 7.570312 32.871094 C 8.476562 31.347656 8.941406 30.101562 9.152344 28.613281 C 9.238281 28.023438 9.238281 26.613281 9.152344 26.035156 C 9.03125 25.183594 8.734375 24.074219 8.464844 23.484375 L 8.390625 23.316406 L 8.542969 22.898438 C 8.628906 22.667969 8.714844 22.433594 8.742188 22.371094 C 8.761719 22.3125 8.792969 22.265625 8.808594 22.265625 C 8.824219 22.265625 8.933594 22.367188 9.050781 22.488281 Z M 23.382812 22.878906 C 23.601562 23.320312 23.773438 23.8125 23.882812 24.308594 C 24.003906 24.847656 24.011719 26.011719 23.902344 26.539062 C 23.734375 27.375 23.300781 28.359375 22.6875 29.316406 C 22.324219 29.882812 21.390625 31.203125 21.355469 31.207031 C 21.320312 31.210938 21.285156 30.855469 21.242188 30.023438 C 21.121094 27.652344 21.59375 25.472656 22.6875 23.386719 C 22.960938 22.867188 23.152344 22.539062 23.1875 22.539062 C 23.199219 22.539062 23.285156 22.691406 23.382812 22.878906 Z M 8.214844 24.863281 C 8.699219 26.492188 8.738281 28.199219 8.320312 29.828125 C 8.140625 30.511719 7.960938 30.988281 7.601562 31.71875 L 7.300781 32.324219 L 7.273438 32.109375 C 7.257812 31.992188 7.234375 31.464844 7.21875 30.9375 C 7.171875 29.382812 7.304688 27.78125 7.617188 26.191406 C 7.734375 25.582031 8.035156 24.410156 8.066406 24.441406 C 8.082031 24.457031 8.148438 24.648438 8.214844 24.863281 Z M 28.476562 32.050781 C 29.882812 33.515625 30.53125 34.605469 30.746094 35.863281 C 30.824219 36.328125 30.804688 36.980469 30.703125 37.363281 C 30.609375 37.691406 30.289062 38.332031 30.054688 38.636719 C 29.707031 39.089844 28.695312 39.984375 28.394531 40.097656 C 28.347656 40.117188 28.328125 40.023438 28.289062 39.523438 C 28.207031 38.464844 28.03125 37.484375 27.570312 35.472656 C 26.984375 32.921875 26.75 31.5 26.75 30.53125 L 26.75 30.265625 L 27.351562 30.882812 C 27.679688 31.226562 28.1875 31.75 28.476562 32.050781 Z M 13.394531 33.128906 C 13.257812 33.71875 13.113281 34.230469 12.78125 35.34375 C 12.441406 36.476562 12.179688 37.503906 12.082031 38.054688 C 12.042969 38.285156 12.003906 38.484375 11.992188 38.496094 C 11.953125 38.53125 11.660156 37.855469 11.582031 37.558594 C 11.484375 37.199219 11.480469 36.320312 11.578125 35.90625 C 11.746094 35.175781 12.085938 34.445312 12.589844 33.746094 C 12.90625 33.308594 13.457031 32.644531 13.480469 32.671875 C 13.488281 32.679688 13.449219 32.886719 13.394531 33.128906 Z M 21.257812 34.0625 C 21.511719 35.578125 21.613281 36.347656 21.679688 37.265625 C 21.804688 39.128906 21.507812 40.914062 20.871094 42.183594 L 20.746094 42.429688 L 20.585938 42.164062 C 20.027344 41.222656 19.625 40.097656 19.445312 38.945312 C 19.347656 38.332031 19.347656 37.105469 19.449219 36.484375 C 19.644531 35.21875 20.101562 34.015625 20.78125 32.953125 C 20.949219 32.695312 20.984375 32.65625 21.011719 32.71875 C 21.027344 32.757812 21.140625 33.363281 21.257812 34.0625 Z M 7.136719 34.863281 C 7.214844 35.378906 7.34375 36.203125 7.417969 36.691406 L 7.554688 37.585938 L 7.457031 38.019531 C 7.28125 38.792969 7.257812 39.015625 7.261719 39.824219 C 7.261719 40.722656 7.332031 41.203125 7.574219 41.960938 C 7.742188 42.46875 7.746094 42.574219 7.628906 43.28125 C 7.460938 44.269531 7.144531 45.296875 6.703125 46.269531 C 6.480469 46.761719 5.976562 47.664062 5.914062 47.683594 C 5.855469 47.703125 5.378906 47.191406 5.078125 46.804688 C 4.339844 45.835938 3.828125 44.71875 3.578125 43.507812 C 3.128906 41.335938 3.492188 39.386719 4.753906 37.1875 C 5.152344 36.496094 6.925781 33.851562 6.960938 33.894531 C 6.976562 33.910156 7.058594 34.347656 7.136719 34.863281 Z M 7.726562 39.050781 C 7.792969 39.9375 7.828125 40.996094 7.804688 41.367188 L 7.773438 41.777344 L 7.703125 41.484375 C 7.578125 40.964844 7.539062 40.457031 7.566406 39.707031 C 7.597656 38.96875 7.621094 38.710938 7.671875 38.710938 C 7.6875 38.710938 7.710938 38.863281 7.726562 39.050781 Z M 28.007812 41.410156 C 27.953125 42.402344 27.8125 43.109375 27.511719 43.996094 C 27.25 44.75 26.753906 45.734375 26.386719 46.222656 C 26.339844 46.285156 26.308594 46.285156 25.835938 46.15625 C 25.292969 46.007812 24.625 45.75 24.148438 45.503906 C 23.691406 45.265625 23.710938 45.300781 23.777344 44.988281 C 23.925781 44.316406 24.21875 43.679688 24.640625 43.121094 C 25.199219 42.386719 25.84375 41.90625 27.75 40.8125 C 27.960938 40.691406 27.992188 40.683594 28.015625 40.742188 C 28.027344 40.78125 28.027344 41.082031 28.007812 41.410156 Z M 17.203125 42.863281 C 17.710938 43.367188 18.074219 43.917969 18.320312 44.570312 L 18.414062 44.824219 L 18.230469 44.648438 C 18.027344 44.453125 17.640625 43.976562 17.394531 43.605469 C 17.167969 43.273438 16.78125 42.539062 16.832031 42.539062 C 16.851562 42.539062 17.019531 42.6875 17.203125 42.863281 Z M 24.195312 45.640625 C 24.6875 45.875 25.527344 46.164062 26.007812 46.269531 L 26.316406 46.335938 L 26.210938 46.476562 C 25.824219 46.996094 25.007812 47.839844 24.5625 48.191406 C 24.367188 48.339844 24.382812 48.351562 24.160156 47.910156 C 23.863281 47.320312 23.679688 46.554688 23.679688 45.917969 C 23.679688 45.648438 23.707031 45.429688 23.738281 45.429688 C 23.742188 45.429688 23.949219 45.523438 24.195312 45.640625 Z M 24.195312 45.640625 "/>
<path style=" stroke:none;fill-rule:nonzero;fill:rgb(12.941176%,58.823529%,95.294118%);fill-opacity:1;" d="M 27.390625 46.472656 C 27.425781 46.480469 27.480469 46.480469 27.507812 46.472656 C 27.53125 46.460938 27.503906 46.453125 27.4375 46.453125 C 27.375 46.453125 27.351562 46.460938 27.390625 46.472656 Z M 27.390625 46.472656 "/>
<path style=" stroke:none;fill-rule:nonzero;fill:rgb(12.941176%,58.823529%,95.294118%);fill-opacity:1;" d="M 13.386719 47.019531 C 13.421875 47.027344 13.476562 47.027344 13.503906 47.019531 C 13.527344 47.007812 13.5 47 13.433594 47 C 13.371094 47 13.347656 47.007812 13.386719 47.019531 Z M 13.386719 47.019531 "/>
<path style=" stroke:none;fill-rule:nonzero;fill:rgb(12.941176%,58.823529%,95.294118%);fill-opacity:1;" d="M 13.601562 47.058594 C 13.628906 47.070312 13.664062 47.066406 13.675781 47.054688 C 13.691406 47.042969 13.667969 47.03125 13.625 47.035156 C 13.582031 47.035156 13.570312 47.046875 13.601562 47.058594 Z M 13.601562 47.058594 "/>
<path style=" stroke:none;fill-rule:nonzero;fill:rgb(12.941176%,58.823529%,95.294118%);fill-opacity:1;" d="M 5.109375 48.816406 C 5.058594 48.878906 5.0625 48.882812 5.125 48.832031 C 5.1875 48.78125 5.207031 48.75 5.175781 48.75 C 5.167969 48.75 5.136719 48.78125 5.109375 48.816406 Z M 5.109375 48.816406 "/>
<path style=" stroke:none;fill-rule:nonzero;fill:rgb(12.941176%,58.823529%,95.294118%);fill-opacity:1;" d="M 22.304688 49.53125 C 22.273438 49.550781 22.265625 49.570312 22.285156 49.570312 C 22.308594 49.570312 22.351562 49.550781 22.382812 49.53125 C 22.414062 49.511719 22.425781 49.492188 22.402344 49.492188 C 22.382812 49.492188 22.335938 49.511719 22.304688 49.53125 Z M 22.304688 49.53125 "/>
</g>
</svg>
