<?xml version="1.0" encoding="UTF-8"?>
<svg xmlns="http://www.w3.org/2000/svg" xmlns:xlink="http://www.w3.org/1999/xlink" width="113px" height="75px" viewBox="0 0 113 75" version="1.1">
<g id="surface1">
<path style=" stroke:none;fill-rule:nonzero;fill:rgb(61.960784%,61.960784%,61.960784%);fill-opacity:1;" d="M 56.71875 10.71875 C 56.375 11.019531 56.148438 11.378906 56.148438 11.636719 C 56.148438 11.714844 55.996094 12.007812 55.800781 12.28125 C 55.371094 12.902344 55.308594 13.261719 55.492188 13.988281 L 55.644531 14.542969 L 55.40625 15.039062 C 55.183594 15.488281 55.175781 15.578125 55.230469 16.242188 C 55.289062 16.9375 55.28125 16.957031 55.027344 17.292969 C 54.585938 17.859375 54.550781 17.972656 54.566406 18.898438 C 54.574219 19.605469 54.550781 19.808594 54.417969 20.011719 C 53.976562 20.683594 53.816406 21.234375 53.808594 22.046875 C 53.796875 22.65625 53.753906 22.929688 53.613281 23.238281 C 53.367188 23.75 53.207031 24.671875 53.277344 25.101562 C 53.332031 25.394531 53.304688 25.492188 53.109375 25.710938 C 52.988281 25.863281 52.871094 26.109375 52.84375 26.269531 C 52.710938 27.171875 52.710938 27.410156 52.878906 27.9375 C 53.101562 28.628906 53.101562 28.691406 52.890625 28.804688 C 52.652344 28.929688 52.507812 28.847656 52.269531 28.46875 C 52.15625 28.285156 51.972656 28.070312 51.863281 28 C 51.75 27.929688 51.078125 27.488281 50.375 27.011719 C 49.65625 26.542969 49.066406 26.15625 49.039062 26.15625 C 49.003906 26.15625 48.757812 25.988281 47.449219 25.050781 C 45.976562 23.988281 45.984375 23.988281 44.980469 23.988281 C 44.105469 23.988281 44.097656 23.988281 44.070312 24.210938 C 44.050781 24.324219 43.9375 24.539062 43.824219 24.679688 C 43.566406 24.988281 43.558594 25.171875 43.789062 25.625 C 43.964844 25.976562 44.027344 26.667969 43.882812 26.824219 C 43.707031 27.011719 43.707031 27.355469 43.875 27.640625 C 44.085938 27.984375 44.105469 28.382812 43.910156 28.671875 C 43.726562 28.957031 43.804688 29.300781 44.195312 29.839844 C 44.449219 30.203125 44.492188 30.316406 44.449219 30.582031 C 44.40625 30.847656 44.449219 31.003906 44.671875 31.402344 C 44.945312 31.878906 44.945312 31.914062 44.847656 32.332031 C 44.730469 32.816406 44.820312 33.3125 45.121094 33.824219 C 45.261719 34.0625 45.269531 34.175781 45.199219 34.488281 C 45.066406 35.078125 45.085938 35.148438 45.554688 35.644531 C 45.871094 35.980469 45.996094 36.183594 45.996094 36.367188 C 45.996094 36.519531 46.125 36.800781 46.320312 37.066406 C 46.613281 37.457031 46.640625 37.5625 46.640625 38.058594 C 46.640625 38.445312 46.59375 38.65625 46.496094 38.773438 C 46.390625 38.886719 46.355469 39.097656 46.355469 39.542969 C 46.355469 39.886719 46.355469 40.257812 46.355469 40.378906 C 46.355469 40.503906 46.355469 40.699219 46.355469 40.8125 C 46.367188 40.9375 46.304688 41.078125 46.222656 41.140625 C 46.144531 41.195312 46.082031 41.335938 46.082031 41.449219 C 46.082031 41.566406 46.019531 41.742188 45.941406 41.839844 C 45.863281 41.953125 45.835938 42.105469 45.871094 42.261719 C 45.90625 42.4375 45.878906 42.5625 45.765625 42.6875 C 45.613281 42.855469 45.554688 43.324219 45.554688 44.292969 C 45.554688 44.425781 45.5 44.628906 45.421875 44.738281 C 45.351562 44.84375 45.289062 45.109375 45.289062 45.328125 C 45.289062 45.550781 45.242188 45.78125 45.191406 45.832031 C 45.113281 45.910156 45.113281 46.042969 45.183594 46.316406 C 45.226562 46.53125 45.253906 46.839844 45.226562 47.007812 C 45.199219 47.203125 45.261719 47.546875 45.367188 47.875 C 45.472656 48.183594 45.535156 48.519531 45.5 48.632812 C 45.472656 48.75 45.507812 48.960938 45.578125 49.09375 C 45.648438 49.234375 45.730469 49.535156 45.757812 49.773438 L 45.816406 50.1875 L 45.375 50.460938 C 44.996094 50.691406 44.925781 50.78125 44.882812 51.082031 C 44.828125 51.371094 44.757812 51.460938 44.398438 51.691406 C 44.121094 51.859375 43.964844 52.015625 43.964844 52.125 C 43.964844 52.300781 44.183594 52.574219 44.324219 52.574219 C 44.371094 52.574219 44.40625 52.628906 44.40625 52.699219 C 44.40625 52.769531 44.492188 52.890625 44.601562 52.964844 C 44.742188 53.058594 44.765625 53.132812 44.707031 53.191406 C 44.582031 53.316406 43.664062 53.539062 43.277344 53.546875 C 42.835938 53.546875 40.546875 54.128906 39.171875 54.578125 L 37.941406 54.988281 L 37.050781 54.925781 C 36.558594 54.890625 35.878906 54.820312 35.53125 54.773438 C 35.199219 54.722656 34.464844 54.6875 33.917969 54.6875 C 33.035156 54.6875 32.894531 54.710938 32.644531 54.878906 C 32.445312 55.03125 32.1875 55.09375 31.65625 55.136719 C 31.003906 55.191406 30.546875 55.339844 30.546875 55.507812 C 30.546875 55.542969 30.421875 55.691406 30.28125 55.84375 C 30.128906 55.992188 30.015625 56.171875 30.015625 56.242188 C 30.015625 56.3125 29.910156 56.425781 29.777344 56.496094 C 29.636719 56.566406 29.441406 56.746094 29.335938 56.886719 C 29.105469 57.195312 28.886719 58.28125 29.027344 58.421875 C 29.210938 58.609375 30.449219 58.664062 34.164062 58.671875 C 37.679688 58.671875 39.019531 58.734375 39.277344 58.890625 C 39.417969 58.972656 39.390625 59.289062 39.242188 59.351562 C 39.160156 59.378906 38.914062 59.324219 38.683594 59.238281 C 38.332031 59.09375 38.023438 59.070312 36.59375 59.070312 C 34.84375 59.070312 34.5 59.128906 34.148438 59.484375 C 34.015625 59.617188 33.898438 59.632812 33.476562 59.589844 C 33.132812 59.554688 32.929688 59.5625 32.894531 59.632812 C 32.859375 59.6875 32.753906 59.730469 32.65625 59.730469 C 32.40625 59.730469 32.453125 59.953125 32.726562 60.074219 C 32.964844 60.183594 32.964844 60.191406 32.796875 60.316406 C 32.460938 60.5625 32.824219 60.675781 34.191406 60.738281 C 34.878906 60.773438 35.726562 60.835938 36.0625 60.878906 C 36.40625 60.925781 37.429688 61.003906 38.347656 61.046875 L 40.019531 61.128906 L 40.839844 60.738281 C 41.652344 60.351562 41.96875 60.269531 42.066406 60.429688 C 42.09375 60.484375 42.304688 60.542969 42.535156 60.570312 C 43.082031 60.648438 43.523438 60.78125 43.523438 60.890625 C 43.523438 60.933594 43.804688 60.96875 44.160156 60.96875 C 44.503906 60.96875 44.910156 61.003906 45.058594 61.058594 C 45.207031 61.101562 45.90625 61.242188 46.613281 61.367188 C 47.320312 61.488281 48.253906 61.675781 48.6875 61.761719 C 49.5 61.941406 52.058594 62.179688 53.628906 62.222656 C 54.117188 62.242188 55.671875 62.179688 57.074219 62.097656 C 60.144531 61.914062 61.628906 61.886719 62.457031 62.011719 C 62.863281 62.074219 63.90625 62.082031 65.546875 62.027344 C 68.558594 61.941406 68.949219 61.859375 70.757812 61.011719 C 71.816406 60.507812 72.3125 60.367188 73.097656 60.316406 C 73.457031 60.289062 74.078125 60.207031 74.464844 60.128906 C 74.855469 60.050781 75.71875 59.945312 76.398438 59.890625 C 77.835938 59.777344 78.015625 59.8125 79.628906 60.589844 C 80.414062 60.96875 82.101562 61.585938 82.332031 61.585938 C 82.347656 61.585938 82.367188 61.464844 82.367188 61.320312 C 82.367188 61.074219 82.046875 60.464844 81.792969 60.207031 C 81.332031 59.75 80.476562 59.140625 79.832031 58.804688 C 79.410156 58.582031 78.949219 58.316406 78.816406 58.210938 C 78.695312 58.097656 78.386719 57.585938 78.128906 57.070312 C 77.800781 56.398438 77.519531 55.957031 77.113281 55.515625 C 76.621094 54.96875 75.65625 54.136719 75.171875 53.828125 C 74.730469 53.554688 72.789062 52.652344 71.992188 52.351562 C 70.28125 51.71875 69.980469 51.59375 69.433594 51.257812 C 68.804688 50.886719 67.757812 50.417969 67.21875 50.277344 C 66.917969 50.207031 66.820312 50.125 66.6875 49.851562 C 66.546875 49.570312 66.527344 49.269531 66.527344 47.492188 C 66.519531 45.503906 66.527344 45.445312 66.757812 44.789062 C 67.367188 43.058594 67.949219 42.09375 69.734375 39.867188 C 71.191406 38.046875 71.207031 38.011719 71.417969 37.375 C 71.683594 36.609375 72.027344 34.875 72.039062 34.328125 C 72.039062 34.082031 71.957031 33.578125 71.859375 33.1875 C 71.738281 32.691406 71.683594 32.199219 71.683594 31.449219 C 71.683594 30.429688 71.675781 30.386719 71.289062 29.34375 C 71.066406 28.761719 70.890625 28.257812 70.890625 28.230469 C 70.890625 28.203125 70.765625 27.921875 70.605469 27.59375 C 70.21875 26.753906 69.679688 25.878906 69.433594 25.667969 C 69.320312 25.570312 69.0625 25.09375 68.867188 24.609375 C 68.214844 22.964844 68.046875 22.59375 67.675781 22.011719 C 67.472656 21.691406 67.191406 21.222656 67.058594 20.984375 C 66.917969 20.738281 66.679688 20.382812 66.527344 20.191406 C 66.371094 19.996094 66.0625 19.535156 65.839844 19.175781 C 65.214844 18.167969 62.257812 14.84375 60.894531 13.625 C 60.535156 13.296875 60.03125 12.785156 59.773438 12.476562 C 59.296875 11.902344 58.117188 10.839844 57.734375 10.648438 C 57.242188 10.398438 57.066406 10.410156 56.71875 10.71875 Z M 56.71875 10.71875 "/>
</g>
</svg>
