<?xml version="1.0" standalone="no"?>
<!DOCTYPE svg PUBLIC "-//W3C//DTD SVG 20010904//EN"
 "http://www.w3.org/TR/2001/REC-SVG-20010904/DTD/svg10.dtd">
<svg version="1.0" xmlns="http://www.w3.org/2000/svg"
 width="1280.000000pt" height="780.000000pt" viewBox="0 0 1280.000000 780.000000"
 preserveAspectRatio="xMidYMid meet">
<metadata>
Created by potrace 1.15, written by Peter Selinger 2001-2017
</metadata>
<g transform="translate(0.000000,780.000000) scale(0.100000,-0.100000)"
fill="#2196f3" stroke="none">
<path d="M1495 7781 l-90 -17 -3 -141 -3 -141 -89 -31 c-49 -17 -93 -31 -99
-31 -5 0 -46 47 -91 105 -45 59 -85 105 -89 103 -45 -19 -181 -104 -181 -113
0 -6 18 -62 40 -124 22 -61 40 -118 40 -125 0 -13 -138 -126 -153 -126 -3 0
-56 32 -117 70 -61 39 -112 70 -114 70 -2 0 -36 -36 -76 -80 l-72 -80 39 -47
c22 -27 61 -76 87 -110 l47 -63 -52 -77 c-29 -43 -53 -80 -55 -82 -3 -3 -211
41 -255 55 -13 3 -26 -18 -58 -98 -22 -56 -37 -104 -33 -107 5 -3 56 -37 115
-75 120 -77 112 -56 78 -196 l-16 -65 -137 -14 -137 -14 -5 -41 c-3 -22 -8
-71 -11 -107 l-6 -67 33 -10 c18 -6 78 -23 133 -38 55 -15 103 -30 106 -33 4
-3 9 -46 13 -96 l6 -90 -107 -49 c-60 -27 -118 -55 -129 -62 l-22 -13 28 -98
27 -98 49 0 c27 1 92 3 144 5 l95 4 37 -84 36 -85 -105 -100 -106 -101 58 -84
c32 -47 60 -87 62 -89 2 -2 62 21 135 52 l132 57 24 -23 c13 -12 42 -43 63
-69 l40 -47 -65 -130 -66 -130 85 -66 85 -67 110 101 109 100 80 -45 c45 -26
81 -50 81 -56 0 -5 -9 -71 -21 -145 -11 -75 -17 -139 -12 -143 4 -4 50 -21
101 -37 l92 -30 51 91 c29 50 62 109 75 132 l23 40 88 -15 c48 -8 89 -15 91
-16 1 -2 15 -67 31 -146 l28 -144 106 -3 105 -3 11 53 c6 29 19 95 29 147 20
108 16 104 141 116 l66 7 68 -126 c38 -69 72 -128 76 -130 4 -3 51 11 104 31
86 31 96 38 92 57 -2 11 -11 66 -20 121 -8 55 -17 112 -20 127 -5 31 -2 33 91
84 l71 38 94 -84 c52 -46 104 -93 116 -103 21 -19 22 -18 100 43 43 35 79 66
81 70 1 3 -29 65 -68 135 -39 71 -69 132 -68 136 2 3 31 36 65 73 l62 68 108
-48 c59 -26 123 -53 140 -60 l33 -14 55 82 c30 46 55 88 55 95 0 6 -15 23 -32
38 -18 15 -68 61 -110 101 l-77 73 40 86 41 87 152 -7 153 -8 25 101 25 100
-136 60 -136 59 3 94 c2 52 5 95 7 97 2 2 66 22 144 46 77 23 143 44 146 47 5
6 -12 190 -19 197 -2 2 -69 10 -147 19 -79 8 -145 17 -147 18 -2 2 -13 44 -26
94 -26 107 -38 87 116 190 l107 71 -16 37 c-42 102 -74 154 -91 149 -9 -3 -66
-17 -127 -31 -60 -14 -117 -28 -125 -30 -10 -3 -32 22 -68 80 l-53 84 85 116
c48 63 86 118 86 122 0 4 -32 40 -71 79 l-71 72 -120 -79 -121 -78 -41 29
c-22 17 -58 45 -80 63 l-38 32 41 131 c23 71 41 134 41 140 0 14 -175 98 -188
90 -6 -3 -47 -54 -92 -111 l-80 -105 -96 35 c-53 19 -98 35 -100 35 -2 0 -5
64 -6 143 l-3 142 -99 12 c-55 7 -101 11 -104 9 -2 -3 -23 -60 -47 -128 l-43
-123 -103 -3 -104 -3 -46 128 c-28 77 -52 129 -60 129 -8 1 -54 -6 -104 -15z
m598 -800 c173 -45 323 -130 460 -260 43 -41 83 -83 87 -92 8 -14 -21 -34
-187 -129 l-196 -113 -61 33 c-33 19 -97 55 -141 80 l-80 46 -3 227 -2 227 23
0 c13 0 58 -9 100 -19z m-395 -212 l-3 -221 -139 -79 c-76 -44 -144 -79 -151
-77 -29 7 -375 214 -375 224 0 23 140 161 215 213 131 91 307 159 413 160 l42
1 -2 -221z m-617 -496 l189 -108 0 -175 0 -175 -122 -72 c-68 -39 -158 -91
-200 -117 l-77 -45 -25 77 c-68 216 -66 427 5 658 11 35 25 64 31 64 6 0 95
-48 199 -107z m1728 52 c57 -152 76 -366 46 -524 -20 -103 -53 -211 -65 -211
-5 0 -95 50 -200 111 l-190 111 0 177 0 177 183 106 c100 59 187 107 194 108
6 0 21 -25 32 -55z m-879 -72 c159 -51 242 -248 169 -403 -66 -140 -210 -207
-354 -165 -46 13 -70 28 -115 73 -67 67 -90 124 -90 222 0 201 193 337 390
273z m-383 -771 l148 -88 3 -228 2 -228 -42 7 c-128 20 -292 87 -413 168 -61
41 -245 219 -245 236 0 5 8 12 18 15 9 3 94 51 187 106 94 55 175 100 182 100
6 0 78 -40 160 -88z m931 -22 c100 -57 182 -109 182 -115 0 -17 -138 -156
-207 -208 -119 -91 -305 -173 -436 -192 l-47 -7 0 228 0 229 148 87 c81 48
154 86 162 85 9 -1 98 -49 198 -107z"/>
<path d="M6529 7670 l-44 -131 -104 3 -105 3 -45 124 -45 123 -46 -6 c-25 -3
-73 -11 -107 -17 l-62 -11 -3 -140 -3 -141 -92 -33 -91 -33 -87 109 c-48 61
-90 108 -94 106 -121 -68 -171 -101 -171 -113 0 -9 16 -65 35 -124 19 -60 35
-115 35 -123 0 -14 -135 -126 -152 -126 -5 0 -59 32 -120 71 -61 39 -114 67
-117 62 -4 -4 -38 -42 -75 -85 -37 -42 -63 -79 -58 -82 5 -3 44 -51 87 -106
l76 -100 -53 -85 c-36 -58 -58 -83 -68 -80 -16 5 -247 55 -254 55 -2 0 -15
-28 -29 -62 -14 -35 -32 -79 -41 -100 l-16 -36 113 -73 c61 -39 114 -73 116
-75 5 -4 -30 -169 -38 -182 -4 -6 -67 -18 -141 -28 -74 -9 -136 -18 -138 -19
-2 -1 -6 -50 -9 -108 l-6 -105 44 -12 c116 -30 222 -60 224 -62 1 -2 5 -45 9
-96 l7 -93 -93 -43 c-51 -24 -110 -51 -130 -59 l-37 -16 13 -48 c8 -26 22 -74
31 -107 l16 -59 77 7 c42 3 106 9 142 12 l65 6 39 -88 40 -87 -107 -99 -107
-100 61 -89 c33 -49 62 -89 65 -89 3 0 62 25 130 55 69 30 128 54 132 54 4 -1
36 -32 71 -70 47 -50 61 -72 54 -81 -6 -7 -38 -65 -72 -130 l-61 -116 85 -67
c99 -77 76 -83 220 50 l87 79 85 -43 c73 -37 84 -47 79 -65 -16 -66 -38 -268
-30 -275 5 -5 50 -22 101 -39 l92 -30 68 130 68 130 59 -7 c32 -3 75 -12 95
-18 l36 -12 29 -142 29 -143 107 0 107 0 22 138 c13 75 24 142 26 148 3 9 137
34 182 34 6 0 42 -57 80 -126 37 -69 73 -128 79 -131 13 -5 182 55 190 68 3 5
-4 73 -16 151 -13 84 -18 144 -12 150 5 5 42 26 82 47 l73 39 111 -99 c61 -54
114 -99 117 -99 5 0 152 110 167 124 1 2 -31 63 -72 137 l-75 133 53 60 c29
33 60 64 68 70 12 7 51 -4 155 -46 76 -31 140 -55 144 -53 3 3 29 42 58 89
l52 85 -68 64 c-37 35 -88 81 -112 103 l-44 40 41 87 41 87 153 -3 153 -2 22
80 c12 44 22 87 22 96 1 11 -39 34 -131 76 l-133 59 -3 101 -3 101 53 15 c29
9 97 28 151 42 91 26 97 29 97 54 -1 30 -19 173 -23 177 -1 1 -68 8 -148 15
l-147 12 -21 86 c-11 48 -21 93 -21 101 0 8 47 46 103 83 56 38 110 74 120 81
16 12 14 19 -25 105 -28 62 -46 91 -58 91 -9 0 -62 -11 -116 -24 -177 -43
-153 -48 -210 41 -27 42 -50 81 -52 85 -2 4 38 62 89 128 l92 121 -73 67 c-40
37 -77 68 -81 70 -4 2 -55 -29 -114 -68 -58 -39 -112 -73 -120 -76 -8 -4 -45
20 -90 56 -41 35 -75 63 -75 64 0 0 20 63 44 139 l44 138 -77 38 c-120 61
-106 64 -191 -46 -41 -53 -79 -102 -85 -110 -8 -11 -28 -7 -110 20 l-100 34
-3 141 c-1 78 -6 142 -10 142 -7 0 -112 16 -168 25 l-31 5 -44 -130z m1 -370
c86 -14 118 -27 158 -64 55 -51 64 -140 27 -269 -46 -157 -187 -307 -290 -307
-89 0 -167 81 -259 269 -43 88 -51 115 -54 173 -4 60 -1 73 21 107 54 82 217
119 397 91z m-945 -467 c16 -9 60 -46 96 -82 72 -73 143 -198 154 -274 14 -92
-34 -184 -114 -221 -40 -18 -64 -21 -186 -21 -176 0 -230 13 -291 69 -36 32
-49 53 -59 94 -17 65 -5 119 48 214 121 216 229 284 352 221z m1828 -26 c51
-22 105 -91 163 -210 60 -123 74 -190 54 -251 -35 -108 -137 -156 -331 -156
-209 0 -303 62 -302 200 2 127 145 365 248 411 47 22 123 24 168 6z m-899
-538 c73 -27 148 -96 183 -167 54 -111 28 -259 -65 -355 -114 -118 -301 -130
-431 -27 -73 58 -115 149 -116 249 0 63 5 86 28 133 74 151 249 224 401 167z
m-841 -539 c160 -60 179 -201 56 -412 -84 -144 -155 -198 -259 -198 -105 0
-150 40 -240 214 -45 88 -55 116 -58 170 -5 84 10 128 61 171 61 53 139 74
274 74 89 1 123 -3 166 -19z m1697 -31 c86 -10 158 -36 194 -67 25 -23 66
-111 66 -144 0 -45 -29 -118 -83 -208 -110 -182 -198 -234 -312 -181 -126 58
-265 265 -265 394 1 100 57 174 150 196 93 22 142 24 250 10z m-899 -452 c112
-59 248 -338 225 -460 -9 -50 -55 -100 -118 -128 -48 -22 -67 -24 -198 -24
-136 0 -148 2 -202 27 -83 39 -113 88 -112 182 2 80 26 153 82 250 89 154 211
212 323 153z"/>
<path d="M10643 7777 l-102 -19 -3 -141 -3 -141 -92 -33 -92 -32 -87 109 -87
110 -36 -21 c-20 -12 -61 -35 -91 -52 -30 -17 -56 -32 -58 -33 -2 -1 15 -59
37 -129 23 -70 41 -133 40 -139 0 -6 -33 -37 -74 -68 l-73 -57 -112 70 c-61
38 -115 70 -119 72 -5 1 -40 -34 -79 -77 l-70 -79 83 -112 83 -112 -54 -82
c-46 -69 -58 -80 -77 -76 -12 3 -71 16 -131 30 -60 14 -110 24 -112 22 -5 -4
-84 -189 -84 -194 0 -2 52 -38 116 -79 65 -43 114 -81 111 -88 -3 -6 -12 -47
-22 -91 -10 -44 -19 -81 -20 -83 -2 -3 -240 -32 -262 -32 -14 0 -21 -36 -26
-142 l-4 -76 61 -17 c34 -9 93 -25 133 -37 81 -23 76 -17 88 -140 l6 -67 -123
-62 c-68 -34 -125 -63 -127 -65 -5 -5 40 -198 48 -205 3 -3 67 0 141 6 74 7
138 11 141 9 3 -2 22 -41 43 -87 l37 -84 -58 -54 c-31 -30 -80 -75 -107 -100
l-49 -46 59 -86 c32 -48 64 -87 71 -87 7 0 65 23 130 50 65 28 122 50 128 50
5 0 38 -31 71 -68 l61 -68 -70 -128 c-38 -71 -65 -131 -60 -135 5 -3 44 -32
87 -64 l78 -59 32 29 c17 15 63 58 102 95 40 38 78 68 85 68 8 0 47 -18 87
-40 83 -47 79 -32 53 -210 -11 -69 -16 -128 -12 -131 3 -4 44 -19 91 -34 47
-15 90 -30 96 -32 7 -2 41 53 79 124 36 70 68 129 70 131 2 2 44 -2 94 -8 l90
-13 11 -51 c5 -28 18 -94 28 -146 l17 -95 107 -3 c95 -2 107 -1 112 15 3 10
15 74 26 142 12 69 23 128 26 132 2 4 37 12 77 19 39 6 79 14 88 16 13 4 34
-28 90 -131 40 -74 76 -135 79 -135 3 0 48 15 100 34 77 27 95 38 93 53 -2 10
-12 78 -23 152 -11 73 -19 135 -18 136 2 1 39 21 82 44 92 49 68 58 215 -76
50 -46 95 -83 100 -83 10 0 154 118 159 130 1 4 -13 35 -32 68 -19 34 -52 94
-72 133 l-37 70 67 68 68 68 141 -58 141 -57 53 79 c29 43 53 82 53 87 0 5
-47 56 -105 113 -118 116 -114 103 -65 213 l31 69 107 -7 c59 -4 128 -9 153
-13 l46 -5 22 88 c12 49 24 96 26 105 4 11 -27 29 -127 73 -73 32 -137 62
-142 66 -5 5 -3 49 4 104 l13 96 41 11 c22 7 86 24 141 39 l100 27 -3 99 c-2
55 -7 102 -10 106 -4 3 -72 12 -152 20 l-145 13 -23 90 c-12 50 -20 95 -18
102 3 6 53 45 113 85 59 40 112 76 117 80 8 5 -54 167 -73 190 -3 4 -71 -9
-150 -28 -79 -19 -145 -33 -146 -32 -22 30 -105 159 -105 164 0 3 38 57 85
118 47 62 85 116 85 121 0 5 -32 42 -71 81 l-71 72 -112 -72 c-61 -40 -116
-75 -123 -79 -8 -5 -106 61 -162 109 -2 2 15 65 38 139 24 74 40 139 36 145
-7 11 -159 90 -174 90 -5 0 -46 -49 -92 -110 -95 -124 -76 -118 -209 -69 l-75
27 -3 141 -3 140 -32 5 c-91 15 -163 23 -168 20 -4 -2 -26 -60 -50 -129 l-44
-125 -105 2 -105 3 -45 122 c-25 67 -48 124 -50 126 -3 2 -51 -6 -107 -16z
m519 -782 c429 -89 743 -398 834 -818 21 -98 21 -299 -1 -402 -73 -347 -301
-631 -614 -766 -148 -63 -245 -83 -411 -83 -166 0 -263 20 -411 83 -474 204
-726 737 -588 1242 31 115 118 282 196 379 153 188 393 330 627 369 87 15 289
12 368 -4z"/>
<path d="M10825 6875 c-267 -43 -515 -217 -649 -458 -78 -140 -124 -347 -112
-502 32 -403 296 -722 683 -827 113 -30 335 -30 448 0 89 25 221 85 291 132
277 191 437 537 395 857 -29 220 -115 390 -276 548 -99 97 -211 166 -342 211
-157 53 -283 64 -438 39z m288 -525 c276 -104 347 -485 126 -684 -238 -214
-621 -84 -679 232 -36 201 107 421 307 472 59 14 181 5 246 -20z"/>
<path d="M3610 3532 l-45 -127 -105 -3 -105 -3 -45 126 c-31 85 -50 125 -60
125 -8 -1 -55 -9 -105 -18 l-90 -17 -3 -141 -3 -142 -91 -31 c-59 -19 -96 -27
-103 -21 -6 5 -45 52 -86 105 -50 65 -79 94 -91 91 -9 -2 -52 -25 -96 -51
l-79 -47 38 -117 c21 -64 40 -123 43 -131 4 -10 -18 -34 -71 -75 -42 -33 -79
-59 -83 -58 -4 1 -57 32 -120 70 l-113 67 -55 -59 c-96 -105 -96 -89 -3 -210
45 -58 81 -107 81 -109 0 -6 -89 -149 -98 -158 -5 -5 -68 4 -142 22 -73 17
-134 29 -136 28 -11 -13 -74 -183 -71 -193 4 -9 97 -75 216 -153 3 -1 -5 -45
-18 -96 -26 -108 -7 -97 -193 -117 l-106 -12 -8 -96 c-5 -53 -9 -100 -9 -106
0 -5 56 -26 125 -45 69 -20 131 -38 139 -41 10 -3 15 -31 18 -99 l5 -95 -122
-54 c-66 -30 -123 -58 -126 -62 -4 -7 43 -199 51 -207 2 -2 65 1 141 7 76 6
139 10 140 8 2 -1 21 -41 42 -87 l39 -85 -105 -100 -105 -100 58 -88 c32 -48
63 -87 69 -87 6 0 67 25 135 55 l125 55 62 -67 c35 -38 63 -71 64 -74 0 -3
-29 -60 -65 -127 -36 -68 -65 -126 -65 -131 0 -7 120 -102 158 -125 9 -5 45
22 110 81 53 49 103 93 110 97 11 7 155 -65 166 -82 2 -4 -5 -65 -15 -137 -11
-72 -18 -136 -17 -144 3 -11 168 -81 193 -81 6 0 36 51 68 113 85 164 69 151
176 132 84 -16 90 -19 95 -43 3 -15 15 -80 27 -145 l22 -117 107 0 106 0 27
142 c14 77 31 144 37 148 12 8 170 33 175 28 2 -2 34 -57 70 -123 37 -66 71
-124 75 -129 8 -8 159 35 190 54 10 6 8 37 -10 148 -12 78 -20 147 -17 155 5
14 136 87 157 87 6 0 59 -43 117 -95 59 -52 110 -95 115 -95 4 0 44 28 87 62
l80 62 -24 40 c-13 23 -46 83 -74 135 l-49 95 60 68 c34 37 67 68 74 68 8 0
73 -25 144 -56 72 -31 133 -55 135 -53 12 12 105 161 105 168 0 5 -47 54 -105
110 -58 55 -105 104 -105 108 0 5 16 45 37 91 l37 83 85 -6 c47 -3 116 -8 152
-11 l67 -6 22 96 c12 53 20 102 17 109 -3 7 -62 37 -132 67 -70 30 -129 60
-131 65 -2 6 0 50 4 100 l7 89 75 22 c41 13 107 32 145 43 l71 21 -11 99 c-5
55 -12 102 -15 104 -3 3 -68 11 -145 17 -77 7 -142 14 -143 16 -2 1 -15 44
-28 96 -23 88 -23 94 -6 106 9 7 64 45 120 83 118 81 114 68 58 191 l-36 76
-132 -34 c-73 -19 -140 -34 -148 -34 -13 0 -110 146 -110 165 0 5 38 59 85
121 47 63 85 118 85 123 0 17 -142 141 -154 134 -6 -3 -61 -39 -123 -79 l-112
-73 -76 61 c-41 33 -75 65 -75 71 0 6 18 69 41 140 22 71 39 130 37 132 -2 1
-44 23 -94 48 l-91 46 -74 -96 c-41 -52 -79 -101 -86 -110 -10 -13 -24 -11
-112 18 l-101 33 0 143 c0 79 -3 143 -7 143 -8 0 -108 15 -168 25 l-30 5 -45
-128z m115 -691 c629 -157 962 -834 705 -1433 -99 -231 -301 -437 -527 -539
-222 -100 -494 -115 -728 -42 -499 156 -808 678 -714 1203 24 134 100 306 182
416 58 76 185 198 257 245 121 80 264 138 403 165 100 19 317 11 422 -15z"/>
<path d="M8752 3640 c-45 -10 -89 -21 -97 -24 -11 -4 -15 -34 -17 -142 l-3
-136 -79 -29 c-44 -16 -86 -29 -93 -29 -11 0 -64 62 -154 180 l-25 34 -92 -53
c-51 -29 -92 -57 -92 -62 0 -5 18 -67 41 -136 23 -71 37 -128 32 -132 -5 -3
-40 -28 -77 -56 -38 -27 -72 -49 -78 -47 -5 1 -55 31 -112 67 -57 36 -107 65
-112 65 -8 0 -81 -79 -126 -135 -17 -21 -15 -25 67 -130 46 -60 81 -113 78
-119 -4 -6 -29 -44 -55 -84 -36 -53 -54 -72 -66 -68 -96 26 -246 56 -252 49
-10 -12 -83 -193 -79 -196 2 -2 47 -31 99 -65 52 -34 103 -68 112 -75 18 -14
19 -7 -23 -168 l-9 -35 -134 -13 -134 -13 -6 -32 c-2 -17 -8 -65 -12 -107 l-6
-77 53 -15 c30 -9 91 -25 136 -38 93 -25 91 -21 94 -139 l2 -75 -125 -60 -126
-60 26 -104 26 -103 120 7 c67 4 131 8 144 9 19 1 29 -12 62 -84 l38 -85 -105
-100 -105 -100 58 -85 c31 -47 59 -87 61 -89 1 -2 60 19 130 47 71 29 133 52
138 52 6 0 36 -29 68 -65 l58 -65 -66 -128 c-36 -71 -65 -131 -65 -134 0 -7
157 -128 166 -128 4 0 40 30 82 67 41 38 90 81 108 96 l34 28 77 -42 c43 -23
79 -43 80 -43 1 -1 -7 -68 -18 -150 -11 -82 -18 -150 -17 -151 2 -1 46 -16 98
-33 112 -37 93 -49 182 115 68 126 57 119 173 99 l70 -12 30 -147 30 -147 107
0 107 0 7 38 c3 20 16 86 28 147 l21 110 70 12 c118 20 105 28 185 -117 39
-72 73 -130 76 -130 6 0 188 62 193 66 2 2 -7 71 -19 154 -12 83 -21 152 -19
154 2 1 39 22 82 45 l78 42 52 -45 c29 -24 81 -71 117 -104 l64 -59 82 66 83
65 -70 132 c-38 72 -69 135 -69 140 0 6 28 40 63 77 l62 68 120 -54 c176 -79
154 -82 219 20 l57 88 -111 105 -110 105 37 88 38 89 138 -7 c75 -4 144 -8
153 -9 16 -1 19 8 59 180 4 19 -11 29 -136 85 -124 56 -140 65 -135 84 3 11 6
52 6 91 l0 71 147 42 c81 23 148 43 149 44 5 5 -18 193 -24 199 -4 3 -70 12
-147 20 l-140 13 -12 38 c-7 21 -19 65 -26 97 l-14 59 123 82 c68 45 124 84
124 87 0 2 -15 37 -34 76 -18 40 -36 82 -40 93 -6 20 -9 19 -144 -13 -75 -19
-142 -34 -148 -34 -10 0 -114 151 -114 166 0 2 38 55 85 118 47 62 85 117 85
122 0 5 -31 40 -69 78 l-69 69 -39 -24 c-21 -12 -71 -45 -111 -71 -39 -27 -79
-51 -86 -54 -13 -5 -145 90 -161 116 -3 5 12 66 35 136 22 70 40 130 40 135 0
7 -170 99 -183 99 -2 0 -42 -50 -88 -110 -95 -125 -79 -120 -211 -69 l-77 30
-3 142 -3 142 -100 13 c-55 7 -101 10 -103 5 -2 -4 -22 -62 -45 -128 l-42
-120 -101 -3 -102 -3 -48 131 c-27 71 -53 129 -59 129 -5 -1 -47 -9 -93 -19z
m453 -1524 c67 -30 121 -85 154 -155 21 -46 26 -70 26 -136 0 -95 -22 -150
-85 -219 -95 -103 -242 -131 -364 -71 -65 33 -123 93 -158 163 -19 38 -23 63
-23 132 0 73 4 92 28 137 83 160 262 223 422 149z"/>
</g>
</svg>
